/* XPM */
static char *_2b1f4f11c8c40a2cb125bd7b18ac520ukSiwQWGBQXjw0zX[] = {
/* columns rows colors chars-per-pixel */
"64 64 222 2 ",
"   c None",
".  c #000000",
"X  c #03040A",
"o  c #070914",
"O  c #12141D",
"+  c #17181E",
"@  c #050D22",
"#  c #080F25",
"$  c #060E2C",
"%  c #061125",
"&  c #0A1226",
"*  c #07122C",
"=  c #0B142B",
"-  c #0E182D",
";  c #1A1B22",
":  c #11192D",
">  c #10172C",
",  c #071433",
"<  c #0A1533",
"1  c #0D1A34",
"2  c #09163A",
"3  c #0C1A3C",
"4  c #131C33",
"5  c #191F35",
"6  c #141E3B",
"7  c #142336",
"8  c #15223C",
"9  c #1B233B",
"0  c #1C2436",
"q  c #1F2028",
"w  c #23252B",
"e  c #2A2B31",
"r  c #20263A",
"t  c #0C1C44",
"y  c #0F1B4A",
"u  c #0A1741",
"i  c #121E41",
"p  c #121E4C",
"a  c #0D2145",
"s  c #0E214A",
"d  c #132142",
"f  c #1A2643",
"g  c #14234C",
"h  c #19254D",
"j  c #12294D",
"k  c #1B2B4D",
"l  c #1C2A43",
"z  c #0E2553",
"x  c #0F245A",
"c  c #0D2956",
"v  c #1B2351",
"b  c #1C2A54",
"n  c #19275D",
"m  c #142B5D",
"M  c #1C2C5D",
"N  c #132656",
"B  c #1D325E",
"V  c #1C3559",
"C  c #222742",
"Z  c #242C44",
"A  c #262A48",
"S  c #292D45",
"D  c #2C3145",
"F  c #26304D",
"G  c #2E354C",
"H  c #343A4D",
"J  c #31364B",
"K  c #242D5A",
"L  c #262F58",
"P  c #2A3554",
"I  c #23325C",
"U  c #2B345C",
"Y  c #2A395F",
"T  c #363B56",
"R  c #132D63",
"E  c #1C2B62",
"W  c #153264",
"Q  c #163369",
"!  c #1C3668",
"~  c #212D63",
"^  c #253362",
"/  c #2A3562",
"(  c #2E3B64",
")  c #24346B",
"_  c #2E3B69",
"`  c #243F62",
"'  c #323C66",
"]  c #323D6B",
"[  c #363B65",
"{  c #2C3B73",
"}  c #2E3E7B",
"|  c #333F7A",
" . c #3B4259",
".. c #23416C",
"X. c #2B406A",
"o. c #344164",
"O. c #3B456C",
"+. c #37466B",
"@. c #2E4173",
"#. c #344274",
"$. c #35447C",
"%. c #3B4B7B",
"&. c #394677",
"*. c #3F527A",
"=. c #45485C",
"-. c #47456A",
";. c #444D6D",
":. c #4B4E6E",
">. c #484C63",
",. c #4D5269",
"<. c #424D74",
"1. c #414E7C",
"2. c #4A4A72",
"3. c #445176",
"4. c #4B557A",
"5. c #4E5A7C",
"6. c #495776",
"7. c #525A7D",
"8. c #575976",
"9. c #5C697C",
"0. c #324980",
"q. c #335480",
"w. c #435185",
"e. c #44528C",
"r. c #4A578D",
"t. c #4B5987",
"y. c #545E82",
"u. c #515D8A",
"i. c #5B5681",
"p. c #495B95",
"a. c #515E94",
"s. c #404D87",
"d. c #625C89",
"f. c #5B6383",
"g. c #5A6489",
"h. c #4B6D97",
"j. c #5A6694",
"k. c #5C6996",
"l. c #52619A",
"z. c #5C699B",
"x. c #566497",
"c. c #636C8B",
"v. c #67688C",
"b. c #68738F",
"n. c #65708D",
"m. c #636D96",
"M. c #6B7392",
"N. c #6C7695",
"B. c #707593",
"V. c #72769C",
"C. c #757D9B",
"Z. c #747B98",
"A. c #706D85",
"S. c #5E6DA1",
"D. c #5C66A0",
"F. c #626EA2",
"G. c #6572A4",
"H. c #6977AB",
"J. c #6C7BAD",
"K. c #6678A9",
"L. c #717FAF",
"P. c #787DA2",
"I. c #6B7DB2",
"U. c #677BB0",
"Y. c #717DB0",
"T. c #7C859C",
"R. c #7C83A2",
"E. c #7884AC",
"W. c #6C84B9",
"Q. c #7584B2",
"!. c #7986B2",
"~. c #7888B8",
"^. c #6C90C9",
"/. c #6D9DD8",
"(. c #7093CA",
"). c #6EA0DB",
"_. c #86829C",
"`. c #8186A3",
"'. c #838BA6",
"]. c #858EAA",
"[. c #888EAC",
"{. c #8786A6",
"}. c #8B93AD",
"|. c #9696AE",
" X c #838BB2",
".X c #8B8FB3",
"XX c #8593BB",
"oX c #8A97BC",
"OX c #9393B2",
"+X c #949BB4",
"@X c #9D9CB5",
"#X c #9B9BB7",
"$X c #A59CB5",
"%X c #9CA0B9",
"&X c #9AA1B6",
"*X c #A1A4BC",
"=X c #A5ABBE",
"-X c #ACA1BA",
";X c #B2ADBE",
":X c #8A97C4",
">X c #98A2C4",
",X c #ABAEC5",
"<X c #A4ADCC",
"1X c #A5AAC3",
"2X c #ACB3CC",
"3X c #B3B7C8",
"4X c #B6B8D3",
"5X c #BEA8C0",
"6X c #BBC2D4",
"7X c #BEC1DE",
"8X c #C6CAD9",
"9X c #CDD4DD",
"0X c #D1D3DE",
"qX c #D1D7E0",
"wX c #D6DAE4",
"eX c #D8DCE5",
"rX c #CFD2E0",
"tX c #DDE1EB",
"yX c #E3E6EC",
"uX c #E4E8F0",
"iX c #E9ECF1",
"pX c #F1F3F6",
/* pixels */
"  . . . . . . . . . . . . . . . . . . . . . . . . . . . . . . . . . . . . . . . . . . . . . . . . . . . . . . . . . . . . . .   ",
". . . . . . . . . . . . . . . . . . . . . . . . . . . . . . . . . . . . . . . . . . . . . . . . . . . . . . . . . . . . . . . . ",
". . . . . . . . . . . . . . . . . . . . . . . . . . . . . . . . . . . . . . . . . . . . . . . . . . . . . . . . . . . . . . . . ",
". . . @ @ @ @ @ @ @ @ @ @ @ @ @ @ @ @ @ @ @ @ @ @ @ @ @ @ @ @ @ @ @ @ @ @ @ @ @ @ @ @ @ @ @ @ @ @ @ @ @ @ @ @ @ @ @ @ @ @ . . . ",
". . . @ @ @ @ @ @ @ @ @ @ @ @ @ @ @ @ @ @ @ @ @ @ @ @ @ @ @ @ @ @ @ @ @ @ @ @ @ @ @ @ @ @ @ @ @ @ @ @ @ @ @ @ @ @ @ @ @ @ . . . ",
". . . @ @ @ @ @ @ @ @ @ @ @ @ @ @ @ @ @ @ @ @ @ @ @ @ @ @ @ @ @ @ @ @ @ @ @ @ @ @ @ @ @ @ @ @ @ @ @ @ @ @ @ @ @ @ @ @ @ @ . . . ",
". . . @ @ @ @ @ @ @ @ @ @ @ @ @ @ @ @ @ @ @ @ @ @ @ @ @ @ @ @ @ @ @ @ @ @ @ @ @ @ @ @ @ @ @ @ @ @ @ @ @ @ @ @ @ @ @ @ @ @ . . . ",
". . . @ @ @ @ @ @ @ @ @ @ @ @ @ @ @ @ @ @ @ @ @ @ @ @ @ @ @ @ @ @ @ @ @ @ @ @ @ @ @ @ @ @ @ @ @ @ @ @ @ @ @ @ @ @ @ @ @ @ . . . ",
". . . @ @ @ @ @ @ @ @ @ @ @ @ @ @ @ @ @ @ @ @ @ @ @ @ @ @ @ @ @ @ @ @ @ @ @ @ @ @ @ @ @ @ @ @ @ o @ @ @ @ @ @ @ @ @ @ @ @ . . . ",
". . . @ @ @ o @ @ @ @ @ @ @ @ @ @ @ @ @ @ @ @ @ @ @ @ @ @ @ @ @ @ @ @ @ @ @ @ @ @ @ @ @ @ @ @ @ # @ @ @ @ @ @ @ @ @ @ @ @ . . . ",
". . . @ @ @ @ @ @ @ @ @ @ # @ @ @ @ @ @ @ @ @ @ @ @ @ @ @ @ @ @ @ @ @ @ @ @ @ @ @ @ @ @ @ @ @ @ # # @ @ @ @ @ @ @ @ @ @ @ . . . ",
". . . @ @ @ @ @ @ @ @ @ @ # # o @ @ @ @ @ @ @ @ @ @ @ o @ @ @ @ @ @ @ @ @ @ @ @ @ @ @ @ @ @ @ @ @ @ @ @ @ @ @ @ @ @ @ @ @ . . . ",
". . . @ @ @ @ @ @ @ @ @ @ @ @ @ @ @ @ @ @ @ @ @ @ @ @ @ @ @ @ @ @ @ @ @ @ @ @ @ @ @ @ @ @ @ @ @ @ @ @ @ @ @ @ @ @ @ @ @ @ . . . ",
". . . @ @ @ @ @ @ @ @ @ @ @ @ @ @ @ @ @ @ @ @ @ @ @ @ @ @ @ @ @ @ @ # # @ @ @ @ @ @ @ @ @ @ @ @ @ @ @ @ @ @ @ @ @ @ @ @ @ . . . ",
". . . @ @ @ @ @ @ @ @ @ @ @ @ @ @ @ @ @ @ @ @ @ @ @ @ @ @ @ @ @ @ @ @ # @ @ @ @ @ o @ @ @ @ @ @ @ @ @ @ @ @ @ @ @ @ @ @ @ . . . ",
". . . @ @ @ @ @ @ @ @ @ @ @ @ @ @ @ @ @ @ @ @ @ @ @ @ @ @ @ @ @ @ @ @ o @ @ @ @ @ @ @ @ @ @ @ @ @ @ @ @ @ @ @ @ @ @ @ @ @ . . . ",
". . . @ @ @ @ @ @ @ @ @ @ @ @ @ @ @ @ @ @ @ @ @ @ @ @ @ @ @ @ @ o @ @ @ @ @ @ @ @ @ @ @ @ @ @ @ @ @ @ @ @ @ @ @ @ @ @ @ @ . . . ",
". . . @ @ @ @ @ @ @ @ @ @ @ @ @ @ @ @ @ @ & @ @ @ @ @ @ @ @ @ @ @ @ @ @ @ @ @ @ @ @ = @ @ @ @ @ @ @ @ @ @ @ @ @ @ @ @ @ @ . . . ",
". . . @ @ @ @ @ @ @ @ @ @ @ @ @ @ @ @ # @ @ @ @ @ @ @ @ @ # @ @ @ @ @ @ @ = @ @ @ @ @ @ @ @ @ @ = @ @ @ o % @ @ @ @ @ - @ . . . ",
". . . @ @ @ @ @ @ @ @ @ @ @ @ @ @ @ @ @ % @ @ @ @ @ @ O @ @ @ @ @ @ @ @ @ @ @ @ @ @ @ @ @ @ @ @ @ @ @ @ @ @ @ @ @ @ @ @ @ . . . ",
". . . @ @ @ @ @ @ @ @ @ @ @ @ @ @ @ @ @ @ @ : D =.=.e # @ @ @ @ @ @ @ @ @ % = @ @ @ @ @ @ @ @ @ = @ @ @ @ @ @ @ @ @ @ @ @ . . . ",
". . . @ @ @ @ @ @ @ @ @ @ @ @ @ @ @ @ @ T =.8._.$X_.T & @ @ @ @ @ @ @ @ @ @ @ @ @ @ @ @ @ @ @ @ @ @ @ @ @ @ @ @ @ @ @ @ @ . . . ",
". . . @ @ @ @ @ @ @ @ @ @ @ @ @ @ @ @ & 8.$X-X-X|.H & @ @ @ @ @ @ @ @ @ @ @ # o @ @ @ @ @ @ @ @ @ @ @ @ @ & @ @ @ @ @ @ @ . . . ",
". . . @ @ @ @ @ @ @ @ @ o @ @ @ @ @ o 0 =.A.-X5X,.4 @ @ @ @ @ @ % @ @ @ @ # # @ @ @ @ @ @ @ @ @ @ @ @ @ @ @ @ = @ @ @ @ @ . . . ",
". . . @ @ @ @ @ @ @ @ @ @ @ @ & @ @ @ @ @ D ;X|.D @ @ @ @ @ @ @ @ @ @ @ @ @ @ @ @ @ @ @ @ @ @ @ @ @ @ @ = @ @ @ @ @ @ @ @ . . . ",
". . . @ @ @ @ @ @ @ @ @ @ @ @ @ @ @ @ @ @ 9 $XOXH & @ @ @ @ @ @ @ # @ @ @ @ @ @ @ @ @ @ @ @ @ @ @ @ @ @ @ @ @ @ @ = - = @ . . . ",
". . . @ & @ @ @ @ @ @ & @ @ @ @ @ @ @ @ @ C ].#XF & @ @ : @ @ @ @ @ @ @ @ @ @ @ @ @ @ @ @ @ @ @ & o @ @ @ @ @ @ @ @ @ @ @ . . . ",
". . . @ @ @ @ @ @ @ @ @ @ @ @ & @ @ @ @ @ 9 L.$XA.& @ @ @ @ # @ @ @ @ @ @ @ @ @ @ @ @ @ @ @ @ @ @ * @ = @ @ @ & @ - @ @ @ . . . ",
". . . @ @ @ @ @ @ & @ @ @ @ @ @ @ @ @ @ @ 1 J.OX_.5 @ @ @ @ @ > @ @ @ @ @ @ @ @ @ @ @ @ @ @ @ @ = @ @ @ @ @ @ @ @ @ @ @ @ . . . ",
". . . @ @ @ @ @ @ @ & @ @ @ @ @ @ @ @ @ # 7 E.J.!.5 @ @ @ @ @ & @ @ @ @ @ & @ @ @ @ @ @ @ @ @ % & @ @ 9 @ @ @ @ @ @ @ @ @ . . . ",
". . . @ @ @ @ @ @ @ @ > @ @ @ @ @ @ @ @ # Y !.Q.Y.C @ @ @ # # @ @ @ @ @ @ @ @ @ @ @ % o @ @ @ @ & @ @ @ - @ @ @ & & @ @ @ . . . ",
". . . @ @ @ @ @ @ @ @ @ @ @ @ @ @ @ @ @ 4 g.!.Q.H.T @ @ @ @ 4 A 9 @ 4 @ @ @ @ @ # # # @ @ & & @ @ @ = @ @ @ @ @ @ @ @ @ @ . . . ",
". . . = @ = = @ @ @ @ @ @ & @ = @ @ & = Z H.J.~.L.H @ @ @ @ 5 4.9 = -.5 $ @ @ @ @ & @ @ % & @ @ @ @ @ @ @ @ = % @ & @ @ @ . . . ",
". . . @ @ @ = @ @ @ @ @ @ @ @ @ @ @ @ @ *.J.W.H.j.r # # @ @ @ # :.@ -.@ & # @ @ @ @ @ = @ @ @ = @ @ @ @ @ @ @ & @ & @ @ @ . . . ",
". . . @ @ @ : @ @ o @ @ & @ @ @ @ @ @ 0 f.K.H.H. XD @ # > # @ > -.2.-.A > > @ @ % @ @ @ @ @ @ @ @ @ @ @ @ * @ @ @ @ @ @ = . . . ",
". . . @ @ & @ @ # # @ @ @ @ @ 5 @ % F k.K.K.Q.H. XT @ @ A 4 @ @ T d.8.# # 5 # @ @ @ @ @ & @ @ @ @ @ - @ o & @ @ @ @ @ @ @ . . . ",
". . . = : = @ @ # @ @ @ @ @ @ F u.k.z.H.H.H.H.Q.XXU # @ @ 6 @ @ 5 d.d.> A S # & @ @ @ @ @ @ @ @ @ & = = @ @ @ @ @ @ @ @ @ . . . ",
". . . & & @ @ @ * @ @ @ @ @ <.H.H.I.U.Q.~.H.Q.Q.J.4 o 4 @ 1 v 4 @ 2.2.T @ @ C & @ & @ @ @ @ @ @ @ @ @ @ = @ # 9 @ @ @ @ @ . . . ",
". . . @ @ & @ % 7 @ - @ @ P H.H.U././.^.H.W.I.~.o.= @ @ 4 @ U p # A A A # 6 i # @ % @ 4 @ : @ @ @ % = @ @ @ & @ @ @ @ @ @ . . . ",
". o O Z : @ @ < @ i 6 & @ Y w.H.^.).)./.^./.:XG.8 & @ @ @ i 1 b ^ &.i.U : &.# > @ @ @ @ 1 = @ @ & o = 8 1 & @ 1 & @ @ @ @ . . . ",
". ; + ,.,.P 9 ( L ^ K * & ^ z.K.W.~.U.U.W.(..XH.X.@ @ @ @ d 2 f ~ n n v ) h l & & % @ @ k @ @ @ # @ * @ < % @ % - : @ @ @ . . . ",
". X w D :._ ' ' <.( I g i K z.H.H.I.] y y ^ H.Y.k 1 @ @ @ r = 2 ) { ) ) E @.@.< @ @ @ : = < $ @ * , @ , * * # % * o @ @ % . . . ",
". . O 8.m.O.' _ ' O._ n b ~ S.J.I.:XX.p y K H.H.L = l @ f $ & # $.) $.0.{ p.$.@ % 7 @ 5 * 4 3 g * f 3 5 ..= 8 1 @ @ @ @ Z . . . ",
". . O b.7.6.6.<.] ' ( ^ ~ ) J.H.H.~._ p p ^ H.H.l @ = < ' $ * u | | | 1._ _ @ @ @ = @ d @ 2 2 , & * 8 @ 1 o - = & % @ @ @ . . . ",
". . + |.7.6.4.4.2.&._ ] $.p.G.I.G.M y y y ^ G.H.P = 2 @ h ] #.K | p.~ s.e.6 @ $ 1 % @ 3 @ 2 L , < g 8 < : @ @ @ @ * @ @ @ . . . ",
". . q &XB.c.v.4.g.y.4._ #.z.$.Y.r.p v y y ^ u.F.<.@ , y 2 f D.} s.e.y F.6 f P 4 & * , 2 @ b < 2 * 3 t = f @ @ @ : * @ @ @ . . . ",
". . w |.B.B.C.[.B.5.<.| p.F.&.G.w.y y y v ] r.1.u.= 2 3 m z $.G.e.r.s.2.i P & & s * g j , t R z z 3 * * , @ 4 7 @ = @ : @ . . . ",
". . e {.B.|.[.b.`.b.5._ ] m.0.{ a.p y y y 1.%.{ t.g x z m E x l.~.l.l.~ T U = < c z , 1 a < E g y s @ 1 # # @ : = @ % 4 = . . . ",
". . e =X*X%XR.R.4.4.<._ _ j.{ n a.~ p y y w.| n D.m x m x W x m q.h.$.Q V a % a c 3 a c ! c 2 1 * % @ < f @ - @ @ - = @ @ . . . ",
". . e ,X,X+X'.C.g.4.y.' ' j.&.n { a.h p y m.{ ^ H.%.0.^ x W x x Q *.~.T.'.3 7 c W ! V Q ..W s 8 a f * 1 6 9 8 & & = @ @ * . . . ",
". . e #X.XR.R.R.C.f.a.O.' x.r.m E l.^ g y z.F.$.!.:XH.a.c x *.0X6X&XyXpXpXt.` *.W W Q R W W m 3 3 t @ 3 1 < < % # $ 2 - 3 . . . ",
". . e >X+XR.R.R.g.5.4.m.1.h.G. X.Xm.!.V.m.,XtX<X~.>X>XQ.k.&X9XtXuXiXtXtXpXpX9XT.h.W W V Q W Q ! W m N z ..j t t 2 2 3 = 5 . . . ",
". . w [.R.R.+X[.R.`.R.`.'.8XeXtXuX6X<XeXuXuXuXuX6XoX:XL.Q.2X0X6XoX0X0X0X0X9X;XT.k a a 1 a j 2 m j k 2 1 * = % * @ * * = 8 . . . ",
". . q R.R.'.R.R.R.R.R.`.8X0XwXwX8XwX6XV.'.8X0X%X1XtX+Xk.*.o.+.b o.=X9.9.+. .& % % @ @ @ * * * % % @ @ @ @ @ @ @ @ @ @ @ % . . . ",
". . + R.R.T.R.M.R.R.R.R.R.|.%X;.v P.] b b R.M.I +X%X6.7.7.5.o.Y V * % @ @ @ o % @ @ @ @ & @ @ & @ @ @ @ @ @ @ @ @ @ @ @ @ . . . ",
". . . 9.7.v.f.8.B.g.3.O.[ g.' h -.j.b b b 1X7.L *XT.b.b.b.b.n.3.Y 1 % @ @ # % * , , , , @ @ @ @ @ @ @ @ @ @ @ @ @ @ @ @ @ . . . ",
". . . :.:.:.:.:.[ / v v v V.] v [.' b b b C.7.' 3Xb.b.b.b.b.b.n.+.k % @ @ = % @ @ @ @ @ @ @ @ @ @ @ @ @ @ @ @ @ @ @ @ @ @ . . . ",
". . . :.:.:.:.[ / K p v U $X2.4..Xb ^ ( / g.v.7.=Xb.b.b.b.b.b.n.o.I * @ @ @ @ @ @ @ = @ @ @ @ @ @ @ @ % @ @ @ @ @ @ @ % @ . . . ",
". . . [ -.[ / K v v v v G.4X<.4XV.M y.N.M.M.`.V.%Xc.b.b.b.b.b.5.( k * @ * , , @ & @ @ @ @ @ @ , * @ @ * , , * @ @ @ @ @ @ . . . ",
". . X K K K K K v v v v {.4Xg.7XR.4.T.+X#X[.@X,XR.6.b.b.b.N.5.( b , @ @ & @ @ @ @ 2 , , u N 2 @ @ @ @ @ % % = @ @ @ @ @ = . . . ",
". . o v v v v v v v v v m.P.4X2X4XM.}.3X3X=X4X4XB.f.b.T.b.c.Y Y < @ @ @ @ @ @ @ @ @ @ @ @ @ @ @ @ @ % = % @ @ @ @ @ @ @ @ . . . ",
". . . . . . . . . . . . . . . . . . . . . . . . . . . . . . . . . . . . . . . . . . . . . . . . . . . . . . . . . . . . . . . . ",
". . . . . . . . . . . . . . . . . . . . . . . . . . . . . . . . . . . . . . . . . . . . . . . . . . . . . . . . . . . . . . . . ",
". . . . . . . . . . . . . . . . . . . . . . . . . . . . . . . . . . . . . . . . . . . . . . . . . . . . . . . . . . . . . . .   "
};
