/* XPM */
static char *f7f3b7e17e9842bd9c7d21936d257bc9HW4ElBQw0eyUY9LA[] = {
/* columns rows colors chars-per-pixel */
"64 64 146 2 ",
"   c None",
".  c black",
"X  c #1F1913",
"o  c #3F3326",
"O  c #7F664C",
"+  c #CC7F66",
"@  c #D86C7F",
"#  c #D27572",
"$  c #7FBF3F",
"%  c #79BC4F",
"&  c #72B85F",
"*  c #6CB56F",
"=  c #66B27F",
"-  c #A5B819",
";  c #B89C3F",
":  c #ACAF26",
">  c #B2A533",
",  c #B2BF39",
"<  c #99CC00",
"1  c #9FC20C",
"2  c #92C80F",
"3  c #9FCF0F",
"4  c #8CC51F",
"5  c #A5C51C",
"6  c #A5D21F",
"7  c #85C22F",
"8  c #ACD52F",
"9  c #B2CC3C",
"0  c #B2D83F",
"q  c #BF924C",
"w  c #C58959",
"e  c #D28275",
"r  c #B8DB4F",
"t  c #BFD25C",
"y  c #BFDF5F",
"u  c #C5D56C",
"i  c #C5E26F",
"p  c #CCE57F",
"a  c #7F72EB",
"s  c #7279EF",
"d  c #667FF2",
"f  c #F83CBF",
"g  c #A579A8",
"h  c #AC6FB5",
"j  c #E55999",
"k  c #DF628C",
"l  c #DF56A8",
"z  c #EB4FA5",
"x  c #EB5CA8",
"c  c #F246B2",
"v  c #FF59BF",
"b  c #EB69AC",
"n  c #FF62BC",
"m  c #FF6CB8",
"M  c #FF75B5",
"N  c #FF7FB2",
"B  c #FF33CC",
"V  c #F239CF",
"C  c #FF3CC8",
"Z  c #FF3FCF",
"A  c #E53FD2",
"S  c #BF52DB",
"D  c #B259DF",
"F  c #B266C2",
"G  c #8C6CE8",
"H  c #9966E5",
"J  c #CC4CD8",
"K  c #D846D5",
"L  c #FF46C5",
"P  c #F849C2",
"I  c #FF4FC2",
"U  c #FF5FCC",
"Y  c #FF4CD2",
"T  c #FF59D5",
"R  c #FF66D8",
"E  c #FF72DB",
"W  c #FF7FDF",
"Q  c #5FAF8F",
"!  c #59AC9F",
"~  c #7F8CB2",
"^  c #52A8AF",
"/  c #4CA5BF",
"(  c #3F9FDF",
")  c #399CEF",
"_  c #3F92FB",
"`  c #3399FF",
"'  c #7285D2",
"]  c #46A2CF",
"[  c #4C8CF8",
"{  c #5985F5",
"}  c #6C82E2",
"|  c #859C85",
" . c #8C9292",
".. c #DF8995",
"X. c #FFB89F",
"o. c #FF89AF",
"O. c #FF92AC",
"+. c #FF9CA8",
"@. c #EB82B2",
"#. c #FFA5A5",
"$. c #FFAFA2",
"%. c #FFACB2",
"&. c #FFC29C",
"*. c #FFCC99",
"=. c #FFCF9F",
"-. c #D2E88F",
";. c #D8EB9F",
":. c #FFD2A5",
">. c #FFD5AC",
",. c #FFD8B2",
"<. c #FFD2BC",
"1. c #FFDBB8",
"2. c #FFDFBF",
"3. c #DFEFAF",
"4. c #E5F2BF",
"5. c #FF95C8",
"6. c #F895D5",
"7. c #FFB5C5",
"8. c #F2B8CF",
"9. c #FFA8D8",
"0. c #FF8CE2",
"q. c #FF99E5",
"w. c #FFA5E8",
"e. c #FFB2EB",
"r. c #F2C5D2",
"t. c #FFD2D2",
"y. c #F2DFD8",
"u. c #FFE2C5",
"i. c #FFE5CC",
"p. c #EBF5CF",
"a. c #FFE8D2",
"s. c #FFEBD8",
"d. c #FFEFDF",
"f. c #F2F8DF",
"g. c #FFDBE5",
"h. c #FFCCF2",
"j. c #FFD8F5",
"k. c #FFEBEF",
"l. c #FFF2E5",
"z. c #FFF5EB",
"x. c #F8FBEF",
"c. c #FFE5F8",
"v. c #FFF8F2",
"b. c #FFF2FB",
"n. c #FFFBF8",
"m. c white",
/* pixels */
"                                                                                                                                ",
". . . . . . . . . . . . . . . . . . . . . . . . . . . . . . . . . . . . . . . . . . . . . . . . . . . . . . . . . . . . . . .   ",
". . . . . . . . . . . . . . . . . . . . . . . . . . . . . . . . . . . . . . . . . . . . . . . . . . . . . . . . . . . . . . .   ",
". . O *.*.*.*.*.*.*.*.*.*.*.*.*.*.*.*.*.*.*.*.*.*.*.*.*.*.*.*.*.*.*.*.*.*.*.*.*.*.*.*.*.*.*.*.*.*.*.*.*.*.*.*.*.*.*.*.*.*.. .   ",
". . O *.*.*.*.*.*.*.*.*.*.*.*.*.*.*.*.*.*.*.*.*.>.i.1.*.*.*.*.*.*.*.*.*.*.*.*.*.*.*.*.*.*.*.*.*.*.*.*.*.*.*.*.*.*.*.*.*.*.. .   ",
". . O *.*.*.*.*.*.*.*.*.*.*.*.*.*.*.*.*.*.*.*.:.n.m.m.i.*.*.*.*.*.*.*.*.*.*.*.*.*.*.*.*.*.*.*.*.*.*.*.*.*.*.*.*.*.*.*.*.*.. .   ",
". . O *.*.*.*.*.*.*.*.*.*.*.*.*.*.*.*.*.*.*.=.z.m.x.m.m.2.*.*.*.*.*.*.*.*.*.*.*.*.*.*.*.>.l.m.m.1.*.*.*.*.*.*.*.*.*.*.*.*.. .   ",
". . O *.*.*.*.*.*.*.*.*.*.*.*.*.*.*.*.*.*.*.l.m.-.6 m.m.n.=.*.*.*.*.*.*.*.*.*.*.*.*.=.a.m.m.m.m.i.*.*.*.*.*.*.*.*.*.*.*.*.. .   ",
". . O *.*.*.*.*.*.*.*.*.*.*.*.*.*.*.*.*.*.a.m.p.3 < ;.m.m.s.*.*.*.*.*.*.*.*.*.*.*.>.v.m.m.f.3.m.d.*.*.*.*.*.*.*.*.*.*.*.*.. .   ",
". . O *.*.*.*.*.*.*.*.*.*.*.*.*.*.*.*.*.1.m.m.8 < < 6 m.m.v.*.*.*.*.*.*.*.*.*.*.2.n.m.m.p.6 p m.i.*.*.*.*.*.*.*.*.*.*.*.*.. .   ",
". . O *.*.*.*.*.*.*.*.*.*.*.*.*.*.*.*.:.n.m.y < < < < ;.m.m.1.*.*.*.*.*.*.*.*.i.m.m.m.4.3 < p m.i.*.*.*.*.*.*.*.*.*.*.*.*.. .   ",
". . O *.*.*.*.*.*.*.*.*.*.*.*.*.*.*.=.z.m.3.< < < < < 6 m.m.s.*.*.*.*.*.*.*.a.m.m.m.;.3 < < p.m.u.*.*.*.*.*.*.*.*.*.*.*.*.. .   ",
". . O *.*.*.*.*.*.*.*.*.*.*.*.*.*.*.s.m.p.3 < < < < < < ;.m.m.=.*.*.*.*.*.s.m.m.m.p < < < 6 m.m.,.*.*.*.*.*.*.*.*.*.*.*.*.. .   ",
". . O *.*.*.*.*.*.*.*.*.*.*.*.*.*.u.m.m.8 < < < < < < < 6 m.m.u.*.*.*.*.s.m.m.m.y < < < < p m.m.:.*.*.*.*.*.*.*.*.*.*.*.*.. .   ",
". . O *.*.*.*.*.*.*.*.*.*.*.*.*.>.m.m.y < < < < < < < < < ;.m.v.*.*.=.z.m.m.x.0 < < < < < f.m.m.*.*.*.*.*.*.*.*.*.*.*.*.*.. .   ",
". . O *.*.*.*.*.*.*.*.*.*.*.*.=.n.m.p < < < < < < < < < < 6 m.m.>.=.z.m.m.p.6 < < < < < 8 m.m.d.*.*.*.*.*.*.*.*.*.*.*.*.*.. .   ",
". . O *.*.*.*.*.*.*.2.i.i.=.*.l.m.3.< < < < < < < < < < < < ;.m.d.z.m.m.p.3 < < < < < < ;.m.m.,.*.*.*.*.*.*.*.*.*.*.*.*.*.. .   ",
". . O *.*.*.*.*.=.l.m.m.m.m.d.m.f.3 < < < < < < < < < < < < 6 m.m.m.m.-.3 < < < < < < < x.m.z.*.*.*.*.*.*.*.*.*.*.*.*.*.*.. .   ",
". . O *.*.*.*.:.v.m.m.f.4.x.m.x.8 < < < < < < < < < < < < < < p m.f.r < < < < < < < < r m.m.2.*.*.*.*.*.*.*.*.*.*.*.*.*.*.. .   ",
". . O *.*.*.*.z.m.m.;.3 < r m.0 < < < < < < < < < < < < < < < < 0 3 < < < < < < < < < 3.m.v.*.*.*.*.*.*.*.*.*.*.*.*.*.*.*.. .   ",
". . O *.*.*.u.m.m.i < < 6 0 8 < < < < < < < < < < < < < < < < < < < < < * / ! < < < < x.m.2.*.*.*.*.*.*.*.*.*.*.*.*.*.*.*.. .   ",
". . O *.*.>.n.m.y 8 y p.m.m.p.< < < < < < < < < < < $ $ 4 < < < < < = ) ` ` ` 4 < < r m.v.*.*.*.*.*.*.*.*.*.*.*.*.*.*.*.*.. .   ",
". . O *.*.z.m.f.f.m.m.m.m.m.y < < < < < < < < < % ) ` ` ] < < 2 Q ) ` ` ` ` ` < < < ;.m.m.m.m.m.l.a.:.*.*.*.*.*.*.*.*.*.*.. .   ",
". . O *.>.m.m.m.m.n.l.l.m.f.< < < < < < < < 7 ( ` ` ` ` ` 4 ! ) ` ` ` G S d ( < < < f.m.m.m.m.m.m.m.m.d.:.*.*.*.*.*.*.*.*.. .   ",
". . O *.,.m.m.v.i.=.*.g.m.p < < < < < < 2 ^ ` ` ` ` ` ` ` ` ` ` ` ` ` H B s / < < < m.p.0 0 0 0 0 p f.m.m.1.*.*.*.*.*.*.*.. .   ",
". . O *.*.,.>.*.*.*.L B m.3 < < < < < & ) ` ` ` ` ` ` ` ` ` ` ` ` ` ` [ B d = < < < ;.;.< < < < < < 3 3.m.m.2.*.*.*.*.*.*.. .   ",
". . O *.*.*.*.*.*.*.C Z ;.< < < < < & ` ` ` ` ` ` ` ` ` ` ` ` ` ` ` ` ` B d $ < < < < < < < < < < < < < ;.m.n.:.*.*.*.*.*.. .   ",
". . O *.*.*.*.*.*.=.W R r < < < < < $ ` ` ` ` ` ` ` ` ` ` ` ` ` ` ` ` ` B d < < < < < < < < < < < < < < < p.m.i.*.*.O.+.*.. .   ",
". . O *.*.*.*.*.*.,.q.Y < < < < < < < 2 & Q / ` ` ` ` ` ` ` ` ` ` ` ` ` B ~ < < < < < < < < < y i 6 < < < 0 m.n.:.*.v I *.. .   ",
". . O *.*.*.*.*.*.,.q.B < < < < < < < < < < < < < < < & ` ` ` ` ` ` ` ` B ~ / % < < < < < < 6 m.m.x.-.3 < < 4.m.d.*.*.*.*.. .   ",
". . O *.*.*.*.*.*.,.q.B 1 < < < < < - > > > < < < < < ! ` ` { d G [ ` ` B d ` ' + - < < < < < x.b.h.h.r.u < 6 m.m.7.v $.*.. .   ",
". . O *.*.*.*.+.M B B B c 1 < 0 , j B c j j f # < < < ( H V A B B d ` ` B D K l B f > < < < 1 @.B Z U R Z b t ;.m.W B #.*.. .   ",
". . O *.*.*.M n #.=.e.B y.4.x.c.Y Z 8.1 < < > B + < 7 H K _ ` _ G [ ` d B J d 4 < j k < < < j B w.c.,.2.k.Z R m.m.e.B *.*.. .   ",
". . O *.*.N I *.*.*.7.B m.m.m.q.B b.p < < < < + f < | A ` & ` ` ` ` ` s B d ( < < + B < < > B ; f.m.u.*.*.#.B j.m.q.B *.*.. .   ",
". . O *.*.C o.*.*.*.#.B i.i.1.U R m.6 < < < < > B < h H ^ < / ` ` ` ` d B d ! < < + B < < + B < i m.z.*.*.*.B %.s.9.B *.*.. .   ",
". . O *.#.B X.*.*.*.#.B $.*.*.B q.3.< < < < < q f 7 J H * < & ` ` ` ` d B d & < < # B < 8 R x 3 6 m.m.:.*.X.B $.*.#.B *.*.. .   ",
". . O *.#.B &.*.*.*.#.B O.*.1.B q.r < < < < < c @ Q J K 4 < < ( ` ` ` d B } < < < j c < 3.R R 4.3 3.m.i.*.m L *.*.#.B *.*.. .   ",
". . O *.*.B N *.*.*.o.B N *.s.T Z > < < < < @ f - ( a B w 1 < & ` ` ` a B  .< < < c @ 6 m.0.B w.-.y m.v.O.B +.*.*.#.B *.*.. .   ",
". . O *.*.O.B I v v M B N *.z.j.P B # + + k z - 7 ` ` F B c j j A a ` S B w < < : B q i m.<.v B E e q.0.C #.*.*.*.O.B O.*.. .   ",
". . O *.*.*.$.N N #.*.B m =.m.x.5 + ..q.q.e.9 < Q ` ` 4 : # j + + } ` [ g - < < q B q p.m.,.*.5.q.q.6.w.t.*.*.*.*.m I +.*.. .   ",
". . O *.*.*.*.*.*.*.*.B C ,.m.4.< < f.m.m.m.0 < / ` Q < < < < < < $ ` ] 2 < < < < < 6 m.m.=.*.=.v.m.m.m.n.=.*.*.*.*.*.*.*.. .   ",
". . O *.*.*.*.*.*.*.*.m +.,.m.4.< p m.m.m.m.0 < < < < < < < < < < < < < < < < < < < i m.m.*.*.*.>.n.m.m.m.2.*.*.*.*.*.*.*.. .   ",
". . O *.*.*.*.*.*.*.*.*.*.,.m.4.0 m.m.v.n.m.0 < < < < < < < < < < < < < < < < < < < 3.m.l.*.*.*.*.1.m.m.m.d.*.*.*.*.*.*.*.. .   ",
". . O *.*.*.*.*.*.*.*.*.*.,.m.p.4.m.m.1.m.m.0 < < < < < < < 3 4.x.6 < < < < < < < < x.m.s.*.*.*.*.*.a.m.m.m.:.*.*.*.*.*.*.. .   ",
". . O *.*.*.*.*.*.*.*.*.*.,.m.m.m.m.2.,.m.m.0 < < < < < < < 3.m.m.4.< < < < < < < 8 m.m.i.*.*.*.*.*.*.a.m.m.:.*.*.*.*.*.*.. .   ",
". . O *.*.*.*.*.*.*.*.*.*.*.m.m.m.1.*.u.m.m.0 < < < < < < ;.m.m.m.m.r < < < < < < p m.m.1.*.*.*.*.*.*.*.>.:.*.*.*.*.*.*.*.. .   ",
". . O *.*.*.*.*.*.*.*.*.*.*.a.m.2.*.*.i.m.m.0 < < < < < -.m.m.a.z.m.f.< < < < < < 4.m.m.:.*.*.*.*.*.*.*.*.*.*.*.*.*.*.*.*.. .   ",
". . O *.*.*.*.*.*.*.*.*.*.*.*.*.*.*.*.i.m.m.0 < < < < ;.m.m.d.*.u.m.m.r < < < < < m.m.n.*.*.*.*.*.*.*.*.*.*.*.*.*.*.*.*.*.. .   ",
". . O *.*.*.*.*.*.*.*.*.*.*.*.*.*.*.*.i.m.m.0 < < < -.m.m.z.=.*.:.m.m.3.< < < < 0 m.m.l.*.*.*.*.*.*.*.*.*.*.*.*.*.*.*.*.*.. .   ",
". . O *.*.*.*.*.*.*.*.*.*.*.*.*.*.*.*.,.m.m.-.< 3 4.m.m.d.=.*.*.*.l.m.m.6 < < < -.m.m.i.*.*.*.*.*.*.*.*.*.*.*.*.*.*.*.*.*.. .   ",
". . O *.*.*.*.*.*.*.*.*.*.*.*.*.*.*.*.*.v.m.x.4.x.m.n.u.*.*.*.*.*.2.m.m.p < < < 4.m.m.1.*.*.*.*.*.*.*.*.*.*.*.*.*.*.*.*.*.. .   ",
". . O *.*.*.*.*.*.*.*.*.*.*.*.*.*.*.*.*.,.m.m.m.m.z.>.*.*.*.*.*.*.=.n.m.x.< < 3 m.m.m.*.*.*.*.*.*.*.*.*.*.*.*.*.*.*.*.*.*.. .   ",
". . O *.*.*.*.*.*.*.*.*.*.*.*.*.*.*.*.*.*.>.i.i.u.=.*.*.*.*.*.*.*.*.s.m.m.y < r m.m.d.*.*.*.*.*.*.*.*.*.*.*.*.*.*.*.*.*.*.. .   ",
". . O *.*.*.*.*.*.*.*.*.*.*.*.*.*.*.*.*.*.*.*.*.*.*.*.*.*.*.*.*.*.*.:.m.m.f.< -.m.m.u.*.*.*.*.*.*.*.*.*.*.*.*.*.*.*.*.*.*.. .   ",
". . O *.*.*.*.*.*.*.*.*.*.*.*.*.*.*.*.*.*.*.*.*.*.*.*.*.*.*.*.*.*.*.*.l.m.m.y p.m.m.=.*.*.*.*.*.*.*.*.*.*.*.*.*.*.*.*.*.*.. .   ",
". . O *.*.*.*.*.*.*.*.*.*.*.*.*.*.*.*.*.*.*.*.*.*.*.*.*.*.*.*.*.*.*.*.>.m.m.x.m.m.s.*.*.*.*.*.*.*.*.*.*.*.*.*.*.*.*.*.*.*.. .   ",
". . O *.*.*.*.*.*.*.*.*.*.*.*.*.*.*.*.*.*.*.*.*.*.*.*.*.*.*.*.*.*.*.*.*.2.m.m.m.n.=.*.*.*.*.*.*.*.*.*.*.*.*.*.*.*.*.*.*.*.. .   ",
". . O *.*.*.*.*.*.*.*.*.*.*.*.*.*.*.*.*.*.*.*.*.*.*.*.*.*.*.*.*.*.*.*.*.*.,.i.i.>.*.*.*.*.*.*.*.*.*.*.*.*.*.*.*.*.*.*.*.*.. .   ",
". . O *.*.*.*.*.*.*.*.*.*.*.*.*.*.*.*.*.*.*.*.*.*.*.*.*.*.*.*.*.*.*.*.*.*.*.*.*.*.*.*.*.*.*.*.*.*.*.*.*.*.*.*.*.*.*.*.*.*.. .   ",
". . O *.*.*.*.*.*.*.*.*.*.*.*.*.*.*.*.*.*.*.*.*.*.*.*.*.*.*.*.*.*.*.*.*.*.*.*.*.*.*.*.*.*.*.*.*.*.*.*.*.*.*.*.*.*.*.*.*.*.. .   ",
". . O *.*.*.*.*.*.*.*.*.*.*.*.*.*.*.*.*.*.*.*.*.*.*.*.*.*.*.*.*.*.*.*.*.*.*.*.*.*.*.*.*.*.*.*.*.*.*.*.*.*.*.*.*.*.*.*.*.*.. .   ",
". . X o o o o o o o o o o o o o o o o o o o o o o o o o o o o o o o o o o o o o o o o o o o o o o o o o o o o o o o o o o . .   ",
". . . . . . . . . . . . . . . . . . . . . . . . . . . . . . . . . . . . . . . . . . . . . . . . . . . . . . . . . . . . . . .   ",
"  . . . . . . . . . . . . . . . . . . . . . . . . . . . . . . . . . . . . . . . . . . . . . . . . . . . . . . . . . . . . . .   "
};
