/* XPM */
static char *_8907aaf447c4f98e98b7ae137b83e405I66VWok77rMnMVi[] = {
/* columns rows colors chars-per-pixel */
"64 64 222 2 ",
"   c #000000",
".  c #0A0B07",
"X  c #0B0D0A",
"o  c #0D130B",
"O  c #0F1D0F",
"+  c #11150E",
"@  c #141613",
"#  c #151A14",
"$  c #191A16",
"%  c #1B1D1A",
"&  c #182617",
"*  c #1C241A",
"=  c #1E2D1C",
"-  c #1C361D",
";  c #21231D",
":  c #232B1E",
">  c #1D3A20",
",  c #242522",
"<  c #262B25",
"1  c #2B2B2A",
"2  c #253524",
"3  c #293725",
"4  c #2B3A29",
"5  c #32362A",
"6  c #323D2D",
"7  c #3B3C37",
"8  c #1E431E",
"9  c #254425",
"0  c #294626",
"q  c #264A26",
"w  c #274C28",
"e  c #2A4D2A",
"r  c #33412C",
"t  c #354A2D",
"y  c #2B5527",
"u  c #2D542D",
"i  c #2F592E",
"p  c #30562F",
"a  c #30592F",
"s  c #354932",
"d  c #3C4C34",
"f  c #2F5630",
"g  c #325631",
"h  c #345B33",
"j  c #3A5A38",
"k  c #3B5D3A",
"l  c #32612C",
"z  c #366234",
"x  c #3A6435",
"c  c #3D6A36",
"v  c #366338",
"b  c #3D643A",
"n  c #3E6A3A",
"m  c #3D7338",
"M  c #414939",
"N  c #484C3E",
"B  c #425936",
"V  c #435B3C",
"C  c #416835",
"Z  c #42653C",
"A  c #426C3C",
"S  c #4A6C3C",
"D  c #407137",
"F  c #45733D",
"G  c #49743F",
"H  c #46793C",
"J  c #4C7C3D",
"K  c #494846",
"L  c #4B5845",
"P  c #54544B",
"I  c #58574B",
"U  c #5A5A4E",
"Y  c #5C5C51",
"T  c #426542",
"R  c #4A6444",
"E  c #456B43",
"W  c #4A6B47",
"Q  c #576849",
"!  c #556A4B",
"~  c #457341",
"^  c #4C7543",
"/  c #4C7A43",
"(  c #4D7449",
")  c #4C7C4A",
"_  c #507543",
"`  c #527B43",
"'  c #56764C",
"]  c #537C4A",
"[  c #5B6553",
"{  c #587955",
"}  c #636658",
"|  c #66735A",
" . c #6C6B67",
".. c #677661",
"X. c #747867",
"o. c #787875",
"O. c #807E7A",
"+. c #51833F",
"@. c #4E8345",
"#. c #4B8645",
"$. c #538344",
"%. c #598644",
"&. c #558A46",
"*. c #5A8B44",
"=. c #53844B",
"-. c #5B844C",
";. c #548B49",
":. c #5C8B4B",
">. c #589748",
",. c #5D914C",
"<. c #548551",
"1. c #5D8353",
"2. c #598756",
"3. c #5E8C51",
"4. c #5E9553",
"5. c #5E9850",
"6. c #648B4C",
"7. c #66944B",
"8. c #63944C",
"9. c #639A4D",
"0. c #628454",
"q. c #638B54",
"w. c #6B8B53",
"e. c #64885B",
"r. c #6B8E5C",
"t. c #639352",
"y. c #6B9555",
"u. c #669B53",
"i. c #6B9C54",
"p. c #65925A",
"a. c #6B945C",
"s. c #659C59",
"d. c #6C9C5B",
"f. c #729457",
"g. c #729D55",
"h. c #73955E",
"j. c #729C5C",
"k. c #7A9E5E",
"l. c #6DA154",
"z. c #6DA25B",
"x. c #73A155",
"c. c #73A25C",
"v. c #7AA75D",
"b. c #668563",
"n. c #7C8C6D",
"m. c #6D9461",
"M. c #6F9F62",
"N. c #729561",
"B. c #749C63",
"V. c #7A9D63",
"C. c #79976B",
"Z. c #7B9B6C",
"A. c #7C8372",
"S. c #74A262",
"D. c #7CA663",
"F. c #7CAA64",
"G. c #7BA36A",
"H. c #7CAA6B",
"J. c #7FB06A",
"K. c #7FA570",
"L. c #82AB58",
"P. c #839A69",
"I. c #858579",
"U. c #868778",
"Y. c #889E73",
"T. c #81A466",
"R. c #81AB65",
"E. c #88AE67",
"W. c #83A46C",
"Q. c #84AB6B",
"!. c #8AAE6D",
"~. c #95AE6D",
"^. c #86B466",
"/. c #8AB265",
"(. c #84B16B",
"). c #89B26D",
"_. c #92B668",
"`. c #89A877",
"'. c #8AAC75",
"]. c #86B372",
"[. c #8BB373",
"{. c #8EB27B",
"}. c #91B573",
"|. c #9AB776",
" X c #93B975",
".X c #93B47C",
"XX c #96BB7A",
"oX c #9ABB7A",
"OX c #A4C27C",
"+X c #8C8C84",
"@X c #8F8E8A",
"#X c #959488",
"$X c #9A9996",
"%X c #8EAA81",
"&X c #98A986",
"*X c #97B685",
"=X c #9CB483",
"-X c #9CBB83",
";X c #A2BE84",
":X c #A3BE8B",
">X c #A2A09C",
",X c #ABB898",
"<X c #A7A6A3",
"1X c #B3B2AF",
"2X c #9CC182",
"3X c #A6C585",
"4X c #A6C38A",
"5X c #ABC589",
"6X c #ACC98B",
"7X c #B2CA8B",
"8X c #A7C595",
"9X c #ABC596",
"0X c #B5CC93",
"qX c #B8CD99",
"wX c #B7D194",
"eX c #BBD29D",
"rX c #BBD2A5",
"tX c #BBCEB1",
"yX c #C3D5A3",
"uX c #C4D7A9",
"iX c #C9DAB3",
"pX c #D1E1B4",
/* pixels */
"                                                                                                                                ",
"                                                                                                                                ",
"                                                                                                                                ",
"                                                                                                                                ",
"                                                                                                                                ",
"                                                    . +                                                                         ",
"                                        % ;       X ,X:XC.&X@X      5 X 5 . @                                                   ",
"                                        t X.5 X + {.%XQ.y.*X0X[ 6 : pXOX/.P.w.5 #     $                                         ",
"                                        Q _..XG.K.*XW.;XeXG.~.y.:XyX;X|.g.h.|.Y.+   @ X..                                       ",
"                                    M N iXiX+.F 2.%X`.a.S..X{.Q.k.yXeXV.T.C B =X' P.|.|..                                       ",
"                                . ; Y.0X6XS.h ( `.:Xy.a.( / H.G.Q.y.H J 7X:XT.:Xh.J | yX|                                       ",
"                              d Q ;Xx.).4XiXpX'.(.6.J r.`.W..X XN.w.%.J h.:X0XuXyXW.-XpXpXP.;                                   ",
"                            + XX[.k.7.i.i.OX6X!.G 6.%.N.rX.X7.S.].*XS.D.XXeX5X/.4X-XS.eX7XOX.X[ :                               ",
"                            M l.N.x y 8.8.x.v.6XC R.oXQ.{.:.N.W / 3.S.t.t.$.w.7X3XR.H.].F.8.H.Y.F.+                             ",
"                          O tXG.B.b V.8.g.7.x.v.3X5Xh.y.:.S.0.8 z x -.W.'.{.qXyXqX).9X:X{.M.[.XXx.;                             ",
"                      # ( #.H.H.] x k.'.] c *.*.D.c.6.y 7./.'.( b <.C.*X8.v.;X:X[.x.S.9X.Xu.9.8X X`.$                           ",
"                    X 2.5.;.a. XR.J Z.m.c C %.J *.*.l.+. X|.rX0X-X{.s.@.Y.q.Q.;XR.F.c.S.c.F.5.S.'.-XZ.=                         ",
"                4 0.d.;.].3XT.6X X[.rXy u ~ y a E n q.XXeX3X;X].d.m.=.@.8 w.W.).R.H.6X6X Xz.x.v.z.d.c.8.V                       ",
"                j S.4XR.OXoX*.k.^. X[.q.c c x f.9X&XOX6XyX4Xi.[.H.H.M.3.V.5XT.i.=.h.OX).5.9.:.[.).F.v.u.*.r   .                 ",
"              * a.i.u.[./.8.T.6X/./.[.F.T._.L.E.oX=XXX}.f.&.N.h G =.F :.@.c w.7X'.v.l.u.&.8.l n 9.i.-Xi.H.8.B.Q                 ",
"              E $.d.:.y.).oX7X6XD.i.oXE.k.i.v.^.6XeXD.a.g.J / y c z h z y y A XX7XoX XH.~ A c.l G.u.F.[.2X[.].Z                 ",
"              M i.F.4X;.*.t./.y.&.y.c.a.( a g.J ^./.*.l c.g.i l / ) c x z 2.4.i.R.oX`.tXH.H G z e.].v.u.S.4.p.p.2               ",
"            X n..X*.S.V.t.&.$.&.t.%.D.0.A -.J A G 8.i.8.x.:.:.V.] i ) ~ h S.l.`.i.i.j.[.(.H.6./ F.).c.oXoX,.;.] B               ",
"          L 0X*XQ.}.j.,.J D J 7.$.` .Xz x ] u u A x x @.p.t.%.F F c h .X1.r.x.y.-.A s.G.^ z.H./ S.j.^.6XwX].].u.4               ",
"            ,.q.9X*Xj.:.J x C W.3XXXF.B.h h S ~.P.h u ] %.5.5.u.(.-.].(.p.F.x.B.u f / n / -.S.z.H t.i.c.).OXF.F.'               ",
"            0 c.}.t.t.&.F e a.wXoXOX'.m.6.g.0.J i.w.J g.R.>.+.y / z E / ~ A 3.g h u u u u n p.m.u.J.d.,.+.8.+.,.R 5             ",
"            C :.B.&.8.:.F.oX7X|.T.J ` ^ %.y./ C b q.k.v./ h h u ~ f u u h h u f u u u u h 2.b f c 4.z.].d.i.a.d.-.X             ",
"          ; %.,.S.+.F $.&.t.j.C +.7.J 8.7.$.h u =.y.S ^ A i u h h f h k Z f u u u u h n <.<.b i b x d.@.4.i.u.u.;X&X} +         ",
"          o 3 ,.$.%.i.m.K.=.C h f.J h T._ p e u x u f b g u c h u u u u f u u u u u u g i u y w ~ ~ u.z.c.m ~ i.T.'.uX}         ",
"        $ * z.G.3.*X9Xc.a.A ] d.6.S u h p u u u u u ~ u u h u u u u u Z A u u u u u u u f w ~ ) z ~ A 4.] p.#.8.g.%.` +         ",
"        6 S.G.{.9X`.%X(.=.h u b b u u ~ x u u u u u u u f u u u u u ~ ) B.Q.n u u u u A h u u v n ) y z u F #.t.A %.[.X         ",
"        X : 3.N.G.:.y.:.-.h _ A u u x x h S A e u u u u u u u g z y u ) p.~ ( u u u u t w.u h u u w u u u A z.q.x j.:X[         ",
"        X ] J ] F.&.q.^ A q.( u u u u u h c m.c 1.E E g u u u u u u u ) i h f b =.v ~ ;.,.-.;.n u g u u u G.a.3.] G.'.G.&XX     ",
"         .].t.A / $.n ^ C u g u u u e q u Z W `.B.m.y f u f u u u u u u f u u u / -.F u i / ;.~ c h y u k ) p.] / 0.w.$.0.,     ",
"      N Z.G.:.2.Z 1.A u E u u u g u u u u h h n u u f e q u u u u u u u u u u i n n i @.~ z n v n ~ v c 4.4.~ u 1.u J A $       ",
"    X | %.t.-.b.h H.n u u u u u f e u u u u u u u u f b q u e > w u 9 u u u u c F.~ h 1.u g i h ~ v =.~ ~ ] h ~ p.q.y.Q         ",
"      o ] $.h a.;.@.A h u u u u u n u u u u u u u u u k u u e q u u > e u u f z a.;./ c u u e u v i @.2.z T u i W A 3X#         ",
"        r G S z ] x B.b u u u y q u u W u u u u u u u u u u f u w & u u u u u 3.n m ) &.c u u u u u u f ) ( f u g 4 @ X         ",
"        X L 1.u r.B.] h g u u u w u u u i x u u u u u u u u u f u - u u u u u i u h h u f u u u u a u g u E T h _ &             ",
"          3 X Q h p b h u u u u h u h A J >.w e u u u g q u T f u u u f u i u u f ~ v u f n f T i u v n u h e i g ' X           ",
"              V F f u u f T A V.:.%.g c u 8.e h w w f b   w b f u u u u u u u u u u h h f k u u T k e.=Xf f 9 g ' s Q <         ",
"            + | h f u u h [.D.( h u u u u b.u u V f g 9 X X u u u h u u u u u u u u T u f T T f v h e 2 # d *   %               ",
"            o s & 2 e e V r.u i Z { f u u u u u u T o s =   h u u V g ! [ k f u u u u f 2.{ e j h ..@                           ",
"                    X %   @ 4 ..u W u g u b u u u f - - L # & f u u R , 9 u u u u u u E 1 1 3   @ <                             ",
"                            X * O   4 * j s j f f - e e u X o u R L 6   e g > f k u { 4                                         ",
"                                              4 f = O X u 9 9 L A.! 0   ; %   = 2 r L X                                         ",
"                                                s +     V ..u ! X.Z d         $   X                                             ",
"                                                        . A.u A.W ..P                                                           ",
"                                                          U Q A.#X| P                                                           ",
"                                                          $ P P U.#XK                                                           ",
"                                                          + P } U.#X}                                                           ",
"                                                            X.U +X+X .                                                          ",
"                                                            Y Y U.U.U                                                           ",
"                                                          ; U M I U 7                                                           ",
"                                                          $ Y U Y U M                                                           ",
"                                                          ,  . .+X} P                                                           ",
"                                                        X  .<XU.o.X.I X                                                         ",
"                                                    7  .O.$X$X<X$X>X<XO.7 ,                                                     ",
"                                            1  .O.@X@X1X@X$X7 @X$XY >X>X1X1X>X .K                                               ",
"                                                1 1 K 1 % 1 ; 1 , $ , 1 , X X                                                   ",
"                                                                                                                                ",
"                                                                                                                                ",
"                                                                                                                                ",
"                                                                                                                                "
};
