/* XPM */
static char *f6a3dc17b566491cda25e738e3428239yswQ8kUOcAfeszFQ[] = {
/* columns rows colors chars-per-pixel */
"64 64 191 2 ",
"   c None",
".  c black",
"X  c #010807",
"o  c #010B0A",
"O  c #030F0D",
"+  c #0F0F0C",
"@  c #0E0E0E",
"#  c gray6",
"$  c #041916",
"%  c #131313",
"&  c #161616",
"*  c #1F1F19",
"=  c #1D1D1D",
"-  c #1E1E1E",
";  c gray12",
":  c #032220",
">  c #082924",
",  c #092F29",
"<  c #0A342E",
"1  c #0B3A34",
"2  c #0B3D36",
"3  c gray13",
"4  c #232323",
"5  c #2F2F26",
"6  c #2A2A2A",
"7  c gray18",
"8  c #2F2F2F",
"9  c #323232",
"0  c gray20",
"q  c #373737",
"w  c #3F3F33",
"e  c #393939",
"r  c #3C3C3C",
"t  c #3F3F3F",
"y  c #7F0C33",
"u  c #0C4039",
"i  c #234239",
"p  c #4F4F3F",
"a  c #0C4A43",
"s  c #0E4C44",
"d  c #09504B",
"f  c #10574E",
"g  c #0A5C56",
"h  c #1E5E55",
"j  c #36524E",
"k  c #0B6761",
"l  c #0D736C",
"z  c gray25",
"x  c #414141",
"c  c gray27",
"v  c #464646",
"b  c #4C4C46",
"n  c #424E4C",
"m  c #4B4B4B",
"M  c gray31",
"N  c #59594F",
"B  c #5F5F4C",
"V  c #515151",
"C  c #555555",
"Z  c #5D5D5D",
"A  c gray37",
"S  c #666659",
"D  c #6F6F59",
"F  c #5B6565",
"G  c #606060",
"H  c #666767",
"J  c #676767",
"K  c gray42",
"L  c #6D6D6D",
"P  c #727262",
"I  c #7F7F66",
"U  c #7F7F6C",
"Y  c #717171",
"T  c gray47",
"R  c #797979",
"E  c #7E7E7E",
"W  c #8C0633",
"Q  c #990033",
"!  c #9F0F3C",
"~  c #A51F46",
"^  c #AC2F4F",
"/  c #B23F59",
"(  c #BF5F6C",
")  c #C56F75",
"_  c #009966",
"`  c #0F9F6C",
"'  c #1FA572",
"]  c #2FAC79",
"[  c #3FB27F",
"{  c #FFCC33",
"}  c #FFCF3C",
"|  c #8F8F72",
" . c #99997F",
".. c #9F9F7F",
"X. c #FFD246",
"o. c #FFD54F",
"O. c #FFD859",
"+. c #FFDF6C",
"@. c #FFE275",
"#. c #0066CC",
"$. c #0F6FCC",
"%. c #0979CC",
"&. c #0C7FCC",
"*. c #1F79CC",
"=. c #0F8A81",
"-. c #7E8585",
";. c #65948F",
":. c #4FB885",
">. c #5FBF8C",
",. c #6DA69E",
"<. c #6CA5B8",
"1. c #6FC592",
"2. c #7FCC99",
"3. c #2C8CC5",
"4. c #2F82CC",
"5. c #4F95CC",
"6. c #5F9FCC",
"7. c #7FB2CC",
"8. c #818181",
"9. c gray52",
"0. c #868686",
"q. c #888888",
"w. c #898989",
"e. c gray54",
"r. c #8C8D8D",
"t. c #8D8D8D",
"y. c #9D9D9D",
"u. c #94BD9E",
"i. c #AFAF8C",
"p. c #B2B292",
"a. c #BFBF99",
"s. c #BFBF9C",
"d. c #9DB0AE",
"f. c #9CB8AF",
"g. c gray64",
"h. c gray70",
"j. c gray73",
"k. c #BCBCBC",
"l. c gray74",
"z. c #D28F89",
"x. c #D89F92",
"c. c #DFAF9C",
"v. c #E5BFA5",
"b. c #8FD29F",
"n. c #9FD8A5",
"m. c #AFDFAC",
"M. c #BFE5B2",
"N. c #FFE889",
"B. c #FFEB92",
"V. c #FFEF9C",
"C. c #CCCCA5",
"Z. c #CFCFA5",
"A. c #DBC8A8",
"S. c #D8D8AF",
"D. c #DFDFB2",
"F. c #EBCFAF",
"G. c #F2DFB8",
"H. c #CFEBB8",
"J. c #FFF2A5",
"K. c #FFF5AF",
"L. c #E5E5B8",
"P. c #EFEFBF",
"I. c #FFF8B8",
"U. c #8FBCCC",
"Y. c #9FC5CC",
"T. c #8FCCDB",
"R. c #BEC5C4",
"E. c #BFD8CC",
"W. c #C0CCCA",
"Q. c #C0CECC",
"!. c gray80",
"~. c gray87",
"^. c #CFE2CC",
"/. c #DFEBCC",
"(. c #DFF2D2",
"). c #F8EFC2",
"_. c #EFF8C5",
"`. c #EFF5CC",
"'. c #F2F2C2",
"]. c #FFFBC2",
"[. c #F0FACA",
"{. c #FFFFCC",
"}. c gray92",
"|. c #ECECEC",
" X c gray93",
".X c #EFEFEF",
"XX c gray95",
"oX c #F8F8F8",
"OX c #FBFBFB",
"+X c gray99",
"@X c #FDFDFD",
/* pixels */
"                                                              {.{.                                                              ",
"0 0 0 0 0 0 0 0 0 0 0 0 0 0 0 0 0 0 0 0 0 P p.L.{.{.{.{.{.{.{.{.{.{.{.{.{.{.{.S. .N 0 0 0 0 0 0 0 0 0 0 0 0 0 0 0 0 0 0 0 0 0 0 ",
"0 { { { { { { { { { { { { { { { { { O.B.{.{.{.{.{.{.{.{.{.{.{.a.D.{.{.{.{.{.{.{.{.{./.7.*.#.#.#.#.#.#.#.#.#.#.#.#.#.#.#.#.#.#.0 ",
"0 { { { { { { { { { { { { { { { O.K.{.{.{.{.{.P.a.I p * . . . . . . . . 5 p I a.{.{.{.{.{.Y.*.#.#.#.#.#.#.#.#.#.#.#.#.#.#.#.#.0 ",
"0 { { { { { { { { { { { { { X.V.{.{.{.{.'.| w . . . . . . . . . . . . . . . . . + B a.{.{.{.{.U.$.#.#.#.#.#.#.#.#.#.#.#.#.#.#.0 ",
"0 { { { { { { { { { { { { @.].{.{.{.D.B + . . . . . . . . . . . . . . . . . . . . . . * ..P.{.{./.4.#.#.#.#.#.#.#.#.#.#.#.#.#.0 ",
"0 { { { { { { { { { { } K.{.{.{.P.B + . . . . . . . . . . . . . . . . . . . . . . . . . . * a.{.{.{.6.#.#.#.#.#.#.#.#.#.#.#.#.0 ",
"0 { { { { { { { { { o.I.{.{.{.i.+ . . . . . . . . . . . . . . . . . . . . . . . . . . . . . . D P.{.{.Y.#.#.#.#.#.#.#.#.#.#.#.0 ",
"0 { { { { { { { { o.].{.{.{.B . . . . . . . . . . . . . . . . . . . . . . . . . . . . . . . . . 5 Z.{.{.E.$.#.#.#.#.#.#.#.#.#.0 ",
"0 { { { { { { { } I.{.{.P.5 . . . . . . . . . . . . . . . . . . . . . . . . . . . . . . . . . . . + a.{.{.^.#.#.#.#.#.#.#.#.#.0 ",
"0 { { { { { { } K.{.{.Z.* . . . . . . . . . . . . . . . . . . . . . . . . . . . . . . . . . . . . . . ..{.{.Y.#.#.#.#.#.#.#.#.0 ",
"0 { { { { { } J.{.{.P.* . . . . . . . . . . . . . . . . . . . . . . . . . . . . . . . . . . . . . . . . Z.{.{.Y.#.#.#.#.#.#.#.0 ",
"0 { { { { { N.{.{.P.5 . . . . . . . . . . . . . . . . . . . . . . . . . . . . . . . . . . . . . . . . . + Z.{.{.U.#.#.#.#.#.#.0 ",
"0 { { { { +.{.{.{.w . . . . . . . . . . . . . . . . . . . . . . . . . . . . . . . . . . . . . . . . . . . + Z.{.{.5.#.#.#.#.#.0 ",
"0 { { { X.].{.{.D . . . . . . . . . . . . . . . . . . . . . . . . . . . . . . . . . . . . . . . . . . . . . + P.{.`.*.#.#.#.#.0 ",
"0 { { { V.{.{.i.. . . . . . . . . . . . . . . . . . . . . . . . . . . . . . . . . . . . . . . . . . . . . . . w {.{.E.#.#.#.#.0 ",
"0 { { O.{.{.P.+ . . . . . . . . . . . . . . . . . . . . . . . . . . . . . . . . . . . . . . . . . . . . . . . . | {.{.6.#.#.#.0 ",
"0 { { J.{.{.B . . . . . . . . . . . . . . . . . . . . . . . . . . . . . . . . . . . . . . . . . . . . . . . . . + P.{.`.#.#.#.0 ",
"0 { O.{.{.D.. . . . . . . . . . . . . . . . . . . . . . . . . . . . . . . . . . . . . . . . . . . . . . . . . . . B {.{.7.#.#.0 ",
"0 { J.{.{.p . . . . . . . . . . . . . . . . . . . . . . . . . . . . . . . . . . . . . . . . . . . . . . . . . . . + P.{.`.4.#.0 ",
"0 } {.{.D.. . . . . . . . . . . . . . . . . . . . . . . . . . . . . . . g =.=.=.=.=.k g g g g g g g g g g g g g g g u.{.{.T.%.0 ",
"0 @.{.{.D . . . . . . . . . . . . . . . . . . . . . . . . . . . . . . $ a . . . . . . . . . . . . . . . . . . . . . i [.{.(.&.0 ",
"0 J.{.{.+ . . . . . . . . . . . . . . . . . . . . . . . . . . . . . $ s . . . . . . . . . . . . . . . . . . . . . : k ..{.{.3.0 ",
"0 {.{.Z.. . . . . . . . . . . . . . . . . . . . . . . . . . . . . $ s . . . . . . . . . . . . . . . . . . . . . : k . p {.{.<.0 ",
"N {.{.D . . . . . . . . . ; t t t t . . t C C C c C C C C t . . $ s . . . . . . . . . . . . . . . . . . . . . o g . . + {.{.f.0 ",
"S {.{.w . . . . . . . . 8  X@X@X@XA . . k.OXOX|.8 OX@XOX@Xl.. $ s . . . . . . . . . . . . . . . . . . . . . o d . . . . Z.{.Z.0 ",
"U {.{.* . . . . . . . 8  X@X@X@XA . . . k.OX|.8 . XXOX@XOXl.$ s . . . . . . . . . . . . . . . . . . . . . o k . . . . . ..{.{.0 ",
" .{.{.. . . . . . . 8  X@X@X@XA . . . . q.|.8 . . ~.@XOX@XQ.s . . . . . . . . . . . . . . . . . . . . . o l o . . . . . I {.{.0 ",
"p.{.D.. . . . . . 8  X@X@X@XA . . . . . L 8 . . . @X+X+X+XR.. . . . . . . . . . . . . . . . . . . . . o l o . . . . . . B {.{.N ",
"Z.{.a.. . . . . M  X@X@X@XA . . . . . . . . . . # OX+X+X+X8 . . . . . . . . . . . . . . . . . . . . o l o . . . . . . . w {.{.S ",
"L.{.... . . . A @X@X@X@XA . . . . . . . . . . # !.@XOX+XA . . . . . . . . . . . . . . . . . . . . o l o . . . . . . . . w {.{.S ",
"{.{.I . . . A @X@X@X@XA . . . . . . . . . . + !.@XOX@Xr.. . . . . . . . . . . . . . . . . . . . o l o . . . . . . . . . w {.{.S ",
"{.{.I . . A @X@X@X@XA . . . . . . . . . . 0  X@XoX@Xy.. . . . . . . . . . . . . . . . . . . . o l o . . . . . . . . . . w {.{.S ",
"{.{.... A @X@X@X@XA . . . . . . . . . . 8  XoX@X@Xy.. . . . . . . . . . . . . . . . . . . . o l o . . . . . . . . . . . p {.{.S ",
"'.{.a.% @X@X@X@X Xl.l.l.l.l.l.l.l.l.8 . l.oXoX@X@X. . . . 8 . . . . 6 . . . . . . . . . . o l o . . . . . . . . . . . . I {.{.S ",
"Z.{.D.% @X@X@X@X@X@X@X@X@X@X@X@X@X@Xx . l.@X@X@X@X. . . A j.. . . . e . ; e.3 e.t j.h.; Y ;.F & . . . . . . . . . . . . | {.{.0 ",
"s.{.{.. @X@X@X@X@X@X@X@X@X@X@X@X@X@Xt . l.@X@X@X@X. . A oXoX. . . . c . + g.M g.A t m T ,.d.8.. . . . . . . . . . . . . a.{.{.0 ",
" .{.{.w @X@X@X@X@X@X@X@X@X@X@X@X@X@Xt O W.@XoX@XoX. A oXoXj.. . . . e . = 9.x G 3 0.-.h r.H A q . . . . . . . . . . . . {.{.M.0 ",
"P {.{.I . . . . . . . . . E @X@X@X@Xn > h. XXX X XK oXoXoXj.. . . . 6 . . . . . . X f X . . . . . . . . . . . . . . . 5 {.{.b.0 ",
"b {.{.a.. . . . . . . . . T @X@X@X@Xn . . . . . . . . . . . . . . . . . . . . . . f X . . . . . . . . . . . . . . . . D {.{.>.0 ",
"0 F.{.{.+ . . . . . . . . K @X@X@X@Xt . . . . . . . . . . . . . . . . . . . . . 2 X . . . . . . . . . . . . . . . . . Z.{.{.' 0 ",
"0 z.{.{.D . . . . . . . . E @X@X@X@Xt . . . . . . . . . . . . . . . . . . . . 2 X . . . . . . . . . . . . . . . . . 5 {.{.H._ 0 ",
"0 ~ {.{.Z.. . . . . . . . A l.l.l.l.j , , , , , , , , , , , , , , , < < 1 1 u X . . . . . . . . . . . . . . . . . . | {.{.1._ 0 ",
"0 Q F.{.{.w . . . . . . . . . . . . . . . . . . . . . . . . . . . . . . . . . . . . . . . . . . . . . . . . . . . + P.{.{.' _ 0 ",
"0 Q ( {.{.a.. . . . . . . . . . . . . . . . . . . . . . . . . . . . . . . . . . . . . . . . . . . . . . . . . . . I {.{.n._ _ 0 ",
"0 Q Q G.{.{.p . . . . . . . . . . . . . . . . . . . . . . . . . . . . . . . . . . . . . . . . . . . . . . . . . * P.{.{.' _ _ 0 ",
"0 Q Q ( {.{.D.+ . . . . . . . . . . . . . . . . . . . . . . . . . . . . . . . . . . . . . . . . . . . . . . . . i.{.{.n._ _ _ 0 ",
"0 W Q Q v.{.{.| . . . . . . . . . . . . . . . . . . . . . . . . . . . . . . . . . . . . . . . . . . . . . . . p {.{._.' _ _ _ 0 ",
"0 y Q Q ~ {.{.{.p . . . . . . . . . . . . . . . . . . . . . . . . . . . . . . . . . . . . . . . . . . . . . * P.{.{.1._ _ _ _ 0 ",
"0 y Q Q Q ) {.{.P.* . . . . . . . . . . . . . . . . . . . . . . . . . . . . . . . . . . . . . . . . . . . . Z.{.{.m._ _ _ _ _ 0 ",
"0 y Q Q Q Q v.{.{.D.+ . . . . . . . . . . . . . . . . . . . . . . . . . . . . . . . . . . . . . . . . . . i.{.{._.` _ _ _ _ _ 0 ",
"0 y Q Q Q Q ! F.{.{.Z.+ . . . . . . . . . . . . . . . . . . . . . . . . . . . . . . . . . . . . . . . . ..{.{._.[ _ _ _ _ _ _ 0 ",
"0 y Q Q Q Q Q ^ ).{.{.P.5 . . . . . . . . . . . . . . . . . . . . . . . . . . . . . . . . . . . . . + Z.{.{.{.>._ _ _ _ _ _ _ 0 ",
"0 y Q Q Q Q Q Q ^ ).{.{.P.5 . . . . . . . . . . . . . . . . . . . . . . . . . . . . . . . . . . . + Z.{.{.{.>._ _ _ _ _ _ _ _ 0 ",
"0 y Q Q Q Q Q Q Q ! F.{.{.P.B . . . . . . . . . . . . . . . . . . . . . . . . . . . . . . . . . 5 D.{.{._.] _ _ _ _ _ _ _ _ _ 0 ",
"0 y Q Q Q Q Q Q Q Q ! F.{.{.{...+ . . . . . . . . . . . . . . . . . . . . . . . . . . . . . . D P.{.{._.] _ _ _ _ _ _ _ _ _ _ 0 ",
"0 y Q Q Q Q Q Q Q Q Q Q z.{.{.{.P.p . . . . . . . . . . . . . . . . . . . . . . . . . . . 5 Z.{.{.{.M.` _ _ _ _ _ _ _ _ _ _ _ 0 ",
"0 y Q Q Q Q Q Q Q Q Q Q Q ( G.{.{.{.D.w . . . . . . . . . . . . . . . . . . . . . . . * i.{.{.{._.b._ _ _ _ _ _ _ _ _ _ _ _ _ 0 ",
"0 y Q Q Q Q Q Q Q Q Q Q Q Q ! c.{.{.{.{.D.D + . . . . . . . . . . . . . . . . . . p a.{.{.{.{.H.] _ _ _ _ _ _ _ _ _ _ _ _ _ _ 0 ",
"0 y Q Q Q Q Q Q Q Q Q Q Q Q Q Q ^ c.{.{.{.{.{.Z.| p + . . . . . . . . . . 5 D i.{.{.{.{.{.H.:._ _ _ _ _ _ _ _ _ _ _ _ _ _ _ _ 0 ",
"0 y Q Q Q Q Q Q Q Q Q Q Q Q Q Q Q Q / x.{.{.{.{.{.{.{.D.a.a.a.a.a.a.a.a.{.{.{.{.{.{.{.M.>._ _ _ _ _ _ _ _ _ _ _ _ _ _ _ _ _ _ 0 ",
"0 y Q Q Q Q Q Q Q Q Q Q Q Q Q Q Q Q Q Q ! ) c.).{.{.{.{.{.{.{.{.{.{.{.{.{.{.{.{.M.2.' _ _ _ _ _ _ _ _ _ _ _ _ _ _ _ _ _ _ _ _ 0 ",
"0 y Q Q Q Q Q Q Q Q Q Q Q Q Q Q Q Q Q Q Q Q Q Q ^ ) z.v.v.v.v.A.M.M.M.M.m.2.[ _ _ _ _ _ _ _ _ _ _ _ _ _ _ _ _ _ _ _ _ _ _ _ _ 0 ",
"0 0 0 0 0 0 0 0 0 0 0 0 0 0 0 0 0 0 0 0 0 0 0 0 0 0 0 0 0 0 0 0 0 0 0 0 0 0 0 0 0 0 0 0 0 0 0 0 0 0 0 0 0 0 0 0 0 0 0 0 0 0 0 0 "
};
