/* XPM */
static char *d2c097e038f940bc9fd0079c872f0a19vsrTqyMJ92LDaCRa[] = {
/* columns rows colors chars-per-pixel */
"64 64 232 2 ",
"   c None",
".  c black",
"X  c gray1",
"o  c #1B1813",
"O  c #1D1C1A",
"+  c #221811",
"@  c #332619",
"#  c #352D23",
"$  c #352D24",
"%  c #352E25",
"&  c #352F25",
"*  c #352F26",
"=  c #353027",
"-  c #363027",
";  c #363127",
":  c #363028",
">  c #363128",
",  c #373129",
"<  c #39352F",
"1  c #373230",
"2  c #3F3E3D",
"3  c #502E19",
"4  c #52301A",
"5  c #54331B",
"6  c #52311C",
"7  c #53341E",
"8  c #753D27",
"9  c #5C4531",
"0  c #5D4935",
"q  c #5E4B38",
"w  c #5F4C38",
"e  c #7F4125",
"r  c #63513E",
"t  c #5D574E",
"y  c #645342",
"u  c #675845",
"i  c #6A5A47",
"p  c #675949",
"a  c #6A5B49",
"s  c #6A5C49",
"d  c #6A5C4A",
"f  c #6A5D4A",
"g  c #6A5D4B",
"h  c #6B5D4B",
"j  c #6B5E4B",
"k  c #6B5D4C",
"l  c #6B5E4C",
"z  c #6B5F4C",
"x  c #6B5E4D",
"c  c #6B5F4D",
"v  c #6B604E",
"b  c #6B604F",
"n  c #6C604E",
"m  c #6C614E",
"M  c #6C614F",
"N  c #6C6251",
"B  c #87472A",
"V  c #8D4D2D",
"C  c #95532F",
"Z  c #8F5131",
"A  c #915030",
"S  c #975734",
"D  c #9A5F3C",
"F  c #A15C32",
"G  c #A46035",
"H  c #AB6235",
"J  c #A86637",
"K  c #AF6636",
"L  c #A56338",
"P  c #AB6539",
"I  c #A7683C",
"U  c #AE693A",
"Y  c #B0663A",
"T  c #B16938",
"R  c #B16B3C",
"E  c #B06E3F",
"W  c #B36F3E",
"Q  c #B86E3D",
"!  c #C1753F",
"~  c #A15F5F",
"^  c #9D6541",
"/  c #B26B44",
"(  c #A8724D",
")  c #B57342",
"_  c #B77747",
"`  c #B97543",
"'  c #BC6C53",
"]  c #AB7955",
"[  c #BD7459",
"{  c #C37B47",
"}  c #C56451",
"|  c #C96C58",
" . c #CC6F5F",
".. c #C5755E",
"X. c #CC705D",
"o. c #CF755F",
"O. c #F85870",
"+. c #CE7461",
"@. c #CF7766",
"#. c #C37B61",
"$. c #CF7863",
"%. c #C87C66",
"&. c #CE7C68",
"*. c #D17C66",
"=. c #C57D7C",
"-. c #F26E70",
";. c #B1815B",
":. c #BF8759",
">. c #B98A62",
",. c #BB926B",
"<. c #BF9971",
"1. c #C4804C",
"2. c #C9844D",
"3. c #CB864F",
"4. c #C58551",
"5. c #CB8851",
"6. c #CD8952",
"7. c #CD8A53",
"8. c #CE8B54",
"9. c #CF8D57",
"0. c #CF8E58",
"q. c #CF905A",
"w. c #D0905A",
"e. c #D2915A",
"r. c #D1925C",
"t. c #D1935D",
"y. c #C98367",
"u. c #D2816A",
"i. c #D0856E",
"p. c #CC9966",
"a. c #C5946D",
"s. c #D38670",
"d. c #CA9770",
"f. c #C39C73",
"g. c #C99B74",
"h. c #CB9F79",
"j. c #E78A7E",
"k. c #C6A27C",
"l. c #CDA67F",
"z. c #D0A27A",
"x. c #FA7287",
"c. c #FF8A94",
"v. c #C8A784",
"b. c #CBAA84",
"n. c #D6AA86",
"m. c #DBAC8E",
"M. c #D4B58E",
"N. c #CFB392",
"B. c #D5B792",
"V. c #DDB590",
"C. c #D2B892",
"Z. c #D5B893",
"A. c #D5B993",
"S. c #D5BA93",
"D. c #D2B895",
"F. c #D5B995",
"G. c #D5BA94",
"H. c #D5BB95",
"J. c #D7BA95",
"K. c #D5BA96",
"L. c #D4BB97",
"P. c #D5BB97",
"I. c #D7BB97",
"U. c #D7BD95",
"Y. c #D5BD97",
"T. c #D6BC96",
"R. c #D7BD97",
"E. c #D8B897",
"W. c #DFBA97",
"Q. c #D6BB99",
"!. c #D5BD99",
"~. c #D6BC98",
"^. c #D7BD99",
"/. c #D7BF99",
"(. c #D7BD9B",
"). c #D6BE9A",
"_. c #D7BF9B",
"`. c #D9BF9D",
"'. c #E3BB98",
"]. c #E2BE9C",
"[. c #FE9BA3",
"{. c #FEACB2",
"}. c #D7C197",
"|. c #D7C19B",
" X c #D7C19D",
".X c #D7C19F",
"XX c #DBC09B",
"oX c #DAC29B",
"OX c #D8C09C",
"+X c #D9C19D",
"@X c #D9C39D",
"#X c #D8C29E",
"$X c #D9C39F",
"%X c #DBC49D",
"&X c #D9C59F",
"*X c #DBC49F",
"=X c #E6C19E",
"-X c #D7C2A1",
";X c #D9C3A1",
":X c #D9C3A3",
">X c #DCC3A3",
",X c #D9C5A2",
"<X c #DBC5A3",
"1X c #DAC6A4",
"2X c #DDC7A6",
"3X c #DBC7A8",
"4X c #DECAAB",
"5X c #E0C3A5",
"6X c #ECC8A5",
"7X c #E0CDAF",
"8X c #F1CDAA",
"9X c #F1D0AE",
"0X c #E2CFB2",
"qX c #F0CDB1",
"wX c #E6D6BD",
"eX c #F2D3B2",
"rX c #FEC0C4",
"tX c #F8D4CF",
"yX c #FFDEDF",
"uX c #EFE5D4",
"iX c #E5E5E3",
"pX c #FAEAE6",
"aX c #FFEFEF",
"sX c #F8F2EA",
"dX c #F4F2F2",
"fX c #FDF5F3",
"gX c #FFF7F7",
"hX c #FCF9F6",
"jX c #FFFBFA",
"kX c #FDFDFB",
"lX c #FFFDFD",
"zX c white",
/* pixels */
"                                                                                                                                ",
". . . . . . . . . . . . . . . . . . . . . . . . . . . . . . . . . . . . . . . . . . . . . . . . . . . . . . . . . . . . . . . . ",
". . . . . . . . . . . . . . . . . . . . . . . . . . . . . . . . . . . . . . . . . . . . . . . . . . . . . . . . . . . . . . . . ",
". . n ^.^.&X^.&X^.+X+X;X}.|.K.|.K.^. X^.^.R.^.R.|.K.+X^.R.R.3X&X^. X^.^.^.K. XK.+XR.K.K.^. X^.^.+XK.R.p.+XK.K.G.p.p.p._.Q.@ . . ",
". . c R.^.K.K.+X;X&X+X+X^.^.+X X^.^.^.^.G.^.^.^.^.+XQ.B.R.+X+X+X;X^. XR.K.+X+XA.+X^.+X^.^. X+X+X|.^.;X^.|.+X^._.&X^.K.R.+X- . . ",
". . c Q.;X^.+X+X^.;X+XQ.+X;X+X;X X|.+X|.^.^.^.|.^.&X|.+XR.^.;X|.+X^.|.+X|.^.^.&XR.|._.+X^.^.^. X X^.^.^.^.^.^.+X+X;XR.;X+X* . . ",
". . c +X|.|.R.+X+XR.+X^.^.&X+X+X^.^. X^. X^.^.A.^.Q.^.+X^.+X|.+X&X^.;X+X^.B.B.R.^.R.A.^.^. X+X+X X+X;X|. X^.R.K.Q.+X^. X^.* . . ",
". . b +X+X+X+X XK.^.+X;X+X+X+X;X^.+XQ.^.;X;X^.^.^.K.A.^.R.+XK.|.^.^.B.^.+X^.^.^. X|.^.K.^.K. X X X+X;X|.R.^.G. X X+X&X X^.- . . ",
". . n +X+X+X_.^.^.^.2X^.|. X^.^.Q.+X^.,X|.G.^.B._. XR. X X^.;XR.^.^.R.^.|.K.Q.|.+X+X X^. X+X+X+X X^. X+XE._.>X_.A.A.+X X^.* . . ",
". . b K._.^.;X+X+X^.;X;X+X1X;X;X&X;X;X^.|.C.R.^.^.G.^.M.^.&X|.+X X+X X,X+X+XA.K.R.^. X^.+X^.+X|.M.|.K.^.^._.U._.^.K.+X+X+X- . . ",
". . b R.K.K.^.+X+X X;X+X;X&X+X+X+X+X_.+X^.^.^.^.K.|.^.H.^.&X&XA.+X^.+X^.+X;XR. X&X^.^.+X^. X^.+XK.K.^.+X|.+XK._.^. X^.^.+X* . . ",
". . b +X&X^.^.+X+X+X&X+X1X&X;X+X+X_.+XK. X^.-X+X^.^.R.^.^.^.+X^. XR.+X X^.+XsXsXuX0X+X+X;X^.+X;X|.^.^.R.^.^.0XwXwX^.^. XK.* . . ",
". . n ^. X+X^. X-X^. X^.+X+X^.+X^.+X+X+X_.+X_.+X;XR.+X|.^. X^.;X^.^.+XK.^.4XkXpXlXlXuX|.|.^.1X+X+X|.K.R.wXjXlXkXsX^.R.oXR.- . . ",
". . c +X^.+X^.R.^.G.^.^.+X^.^.+X^. X+X X+X_._.K.R.|.^.^.^.oX+X+X&X+X|.^.oX0XgXc.c.rXlXlXuXpXhXhXsXpXwXsXlXtX[.{.hX^.^.R.+X- . . ",
". . n ^.;X+X;X+X&X+X+X+X;X+XR.^.|.oX;X^._._.K.^.+X;X;X^.+X|.&X+X^.^.^.|.|.0XgXc.c.rXgXlXlXlXlXlXlXlXlXlXtX[.x.[.fX X^.^.^.- . . ",
". . b R.+X|.^.^.^.+XR.^.K.+XK.^.^.A.+XoX;XU.|.^.&X^.+X&X^.^.^.^.|.^.^.^.+X7XlXrXfXlXlXlXlXlXlXlXlXlXlXlXlXfX[.tXpX^.^.|.;X- . . ",
". . N R.R.|.^.-X+X^.^.^.^.^.A._.+X+X^.^.+X+X^. X^. X+X^.+X^.Q.^.^.^.^. X+X1XlXjXlXlXlXlXlXlXlXlXlXlXlXlXlXlXfXfXwX X|.+X^.- . . ",
". . b +X+X+X&X|. X^.;X&X^. XU.K.K.+X X X+X+X+X^.+X+X+X&X^.^._.^.L. X X,X+X1XlXlXlXlXlXlXlXlXlXlXlXlXlXlXlXlXlXlX;X X X;X+X: . . ",
". . c ^.K.|.R.R.^.+XK. X^.;X&X^.U._.A.^.R.^.|.R. X^.^.^.^.+XK.^. XR.^.^. X;XlXlXlXlXlXlXlXlXlXlXlXlXlXlXlXlXlXkX+X^.;X+X|.- . . ",
". . n R.;X^.^.+X^.^._. X^.^.^. X_.A.U.R. X^.^.^.^.+X|.^._.^._.^. X^.R.+XR.0XlXlXlX~ X O lXlXlXlXlXlXX X 1 lXlXlX4X^.&X^.+X- . . ",
". . b ^.;X+XR.C. XC.|.+X XH.^.^.+XR.R.|.R.+XR.+X+XK.K.R.R.&X^.+XK.^.+XR.&XpXlXlXfXt . X 8 lXlXlXlX8 O X dXlXlXlXwX_.K. X+X* . . ",
". . b  X|.;X^.+X^.^.^.^.R.^. X^.+XR.K.E.A.Q.K.R. X^.B.^.^.K.+XK.^.-.j.^.1XhXkXaXpXt O 1 tXlXgXkXlXfX+ 1 t fXfXjXsX+X&X+X X* . . ",
". . j ^.^.C.^.^.+XR.C.G.&XQ.^.1X;X+X_.;X^.|.^.|.^.;X+X^.^. X^.+X+XR.].+X3XhXaXtXyXyX8 iXlXlXO.c.lXlXlX=.pXyXyXaXsX>X^.|.^.: . . ",
". . b R.^. X^.|.R.1X^.G.^.K.G.^.+X^.K. X X;X+X|.K.;X_. XQ.^. X X^. X^.&X;XgXlXlXtXfXlXlXsXlXyXpXlXhXlXlXfXtXyXaXfX`.+X;X^.: . . ",
". . j ^.+X;X^.+X&X+X+X^.^. X^. X X^.|.^.-X+X^.K.R.+XR.B.M.G.G.^.^.|.^._.+XwXlXlX8XeX8X'.m.m.W.8X8XqX8X9X8XlXlXlXwX&X|.K.+X* . . ",
". . c _. X+X-X;X+XR.,X^.|.^. X^.^.^.^.^._.+X^.^.^.^.|.^.R. XH.^.^.Q.;X^.eXV.V.B.qX8XeXeXV.'.eX8X8X9X8X9XeX6XuXwXa.oX&X+XR.* . . ",
". . b ^. X^. X+X+X&X X+X|.R.^.+X^.R.^.^._._._._.Q. XG.Q.|.^.K. X+X^. XR.9X8X9X8X8X8X8X8X8X8X8X8X8X9X8X9X9XeX8X8X;. X^.;XR.* . . ",
". . n +X+XR.+X&X X+X X+X^.^.&X^.|.&X+X|._.^.^.+X XG.^.B.^.K.^.+X^.|.^.l.eXm.eXV.d.h.v.l.8XqX8X8X9X8X8X9X8X8X8Xl.8Xf.^.^.^.- . . ",
". . b +X^.+X;X^.+XK.;X1X+X^.^.+XK.Q.^. X+X X_.^.R.^.^.L.A.K.|.^.+X^._.8XW.=X8X9X8X8XqX9XeX8X=X6X8X9X8X8XeX8X8X8Xn.a.+X^.R.* . . ",
". . n +XR.^.^.^.^.^.^.Q. X^.;X|._._.;X^.K. X_.^.^.K.|.^.|.^.^.+X^.+X^.eX8XeXh.2XV.g.8X9X9X8X8X8XqX'.n.d.W.].V.h.8X8X^.^.+X* . . ",
". . b ^.^.+X^.+X+X^.^.&X1X+XR.^.+X_.A.^.|.^.^.^.^.Q.^.^.+X_.K.R. X^.+X+XeX8X8X8X9X8X9X=Xm.h.h.g.g.h.].8X8X8X8X8X8Xh.A.^.^.* . . ",
". . j &X X+X|.+X+X X;X+XK.^. X X+X;X+X+X^.;X X^.;X|.+XR.K.+X&X^.+XR.^.^.*.u.&.a.8X8XqXqX9X8X9X8X8X8X8X8X6X8Xy.i.+.K.^.+X^.* . . ",
". . b +X^. X-X;X^.|.;XE.+X;X|.+X+X;X X^.^.A.K.|.R.K.^.K.^.R.B.R.^.|.|.R.u.s.X.#.[ ....X...u.X.u...X.X.&.[ [ | *.$.+X+X^.^.* . . ",
". . b ^.^.^.+X_.&X+X+X_.+X+X;X;X;X|.+X X^.K.|.K.A.^. X^.^. X^.|.+X^.^.^.&.X.$.+.%.&.+.X...&.+.$...o.o.u...+.$.+. .^.^. X X* . . ",
". . c ^.K.oX+X+X1X^.+X&X+X+X;X+X X;X^.-X+X+X+X^.+XU.Q.R. X^.K.K.K.Q.^.^.s.$.o.+.X.+.+.$.X.| +.| | +.+.X.X.X.@.X. .R.+X0XwX: . . ",
". . c +X+X+X_.&X+X+X&X;XU.K.^.^.&X&X|. X+X+X;X+X;X+X|.;XK.R.R.R.|.^.&X^.i...+.*.%.i.o.@...$.X.$...+.X.u.&.+.$.*.u.K.pXlXlX2 . . ",
". . b +X X+X^.K.+XR. X+XR.^.,X+X_.oX_.+X+X|.^.+X_.oXoXK.^. X^.|.K.^.R.R.' *.$.*.#.&.}  .#.u.X.*.#.$.X.s.%.| @.*.@.;XlXuX4X< . . ",
". . x |.^.+X+X+X;X+X+X X+X XC.|._._.;X+X+X+X^.^.&XK.|.+X^.Q.K.;X^.+XK.K.k. .@.+.@.$.@.@.%.i.o.o.%.X.+.+.@.| o.@.@.0XlX4X+X- . . ",
". . n &X+X+X X^.^.;X^.R.^.^.;X^.^.^.+X^. X^.+X^.+X X&X^.+XA.^.+X|.^.^.R.b.s.| X. .X.X.+.X.$.X.+.| +.o.+.X.X.| | [ 2XlXwX+X* . . ",
". . x +X+X X^.^.^.^.&X+X+X X^.^.^.|.+X+X+X^. X|.;X+X+X^.+XQ.^.^.;X^.K.^.R | | X...+.X.| ..X.| | [ |  .X...| } ' / b.lX0X^.- . . ",
". . b |.^.+X^.|.+X&X+X^.^.^.^.B.^. X XK.+XR.Q. X+X|.;X+X|.^.+XR.|.|.+X;XZ H H H / / / } [ $.' ' / / / / / Y / E U wXlX4X_.= . . ",
". . b +X^.+X;X;X+XR.+X;XR.+X|.^.K.K.^.D.^.^.^.^.|.+X^.^.^.;X+XQ. X^.^. XE W W R S Z C F L W J E E W F S C V F ) U fXsX^. X= . . ",
". . n ^.|.^.;X+X;X&X;X+XQ.^.+X^.A.R.^.|.^.+X|.R.+X;X^.R.^._.oX+X+X;XR.C.R T K E R V E U K ) W U C E R W P K E R U lX0X^.+X- . . ",
". . j ^.+X-X|.A. X^.R.|. XK.|.^.^.^.^.|.A.|.R.^._.K.M.^.K._.+X+X+X+X X^.K K R F C B E E W R ) G F U U R / P U U ) 0X^.G.+X* . . ",
". . n _.^.&X+X^.^.+X&X;XK.^.R.K.A.A.+X+XR.R.R.R.K.K.R. XK.|. X^.;X^.^.|.R B B J U V W ) W ) W B B W R U R E R U E ^.+X+X X* . . ",
". . n ;X+X&X^.+X^.&X+X+X^.R.+X^.+XK.oXK.^.^.H.^.U._.Q.Q.^.+X;X;X+XK.A.|.) U J B G W L S V / U U B ) E E R R e G E ^.+X^.+X* . . ",
". . c ^.oX^.;XR.^.^.^.^.|.^.oXR. XK.`.^.A.^.|. X^.K.K.^.^. XK._.|.Q.;XR.U U V ) H I W I D W E C F B B W K E T G W oX+X^.+X* . . ",
". . j R.R.R.^.^.K. X^.+X+XK.E._._._.|.^.+X+XK. X|.K.R.R. X+X_._.Q.R.^.+X] / E ) F G V e Z E ) U C S W ) W E E ) W _. X^.+X* . . ",
". . n _. XB.^.R.G. X^.^.R.^.^.,X^.Q.^.K.K.R.H. X&X^.^. X X|.^.^.R.^.^.^.>.) ) E e Z ) ) ) ) R R W U E E R G 8 E ] oX^.+XR.# . . ",
". . j oX^.^.^.K.Q.+X^.&XQ.^.^.^.+X^._.;XR.K.H.K.^.^.G.R.K.^.^.+X X^.^.+Xv.) E R F ^ W ) U W K U W R W E T R W W <.^.|.R.G.= . . ",
". . a ;X|.Q.^.^.+X^.^.^.|.^.B.K.+X^.^.^.S.^.^.^.G.H.^.^.K.+Xb.;.) ] C.oX^.E ) U ) R W E ) U W R W W F E I { P ) M.&X^.^.R.* . . ",
". . c  X^. X^.^.+X X|.+X+X^. X^.^.+X XA.;X^.^.^.|.^. X>.9.9.5.7.r.0.8.8.;XW R R R R B E J E R L F U V W 8 P 8 ) ^.^.^.+X;X- . . ",
". . b R.^.;XK.^.+X+X^._.;X;X^.|.^.+XR.^.^.R.G. X+X` 7.q.9.9.9.q.3.0.8.3. XZ U ) ) R W W / E ) ) ) W R U E ) E A +X^.^. X+X: . . ",
". . b ^.&X+XR.^.+X_._.^.^.^.^.&X^.+X XK._.^. X:.3.0.3.r.r.8.q.9.4.q.q.L |.|.[ / / H S C S D E ) W T R S C W ' n.|.^.A.$X^.- . . ",
". . c R.^.^.K.K._._.B.+X^.1XK.^.|. X^.^.+X1.0.7.7._ 7.9.5.3.q.r.r.8.I E H.^.$.| | o.|  ...X. .| ..| | o...| | ;X^.K.G.^.^.- . . ",
". . j K. X^.Q.Q. XB.L.Q.G._.^.^.^.R.|.R.7.7.q.7.q.7.7.3.q.3.5.2.q.J L ! 2.^.$.X.+.+.$.X...+.+.X.| | X.o. .X.+.;X+X^.^. X^.- . . ",
". . j H.K.A.^.^.^.Q.^.B.^.^.^.K.+X^.R.9.9.8.2.0.0.8.0.7.2.r.8./ H L Q U 3.b...&.i.u.$.$.$.*.@.X.} @.$.X.&.X.| ^.^.^.K.|.^.# . . ",
". . j G.|.A.|.A.^.C.R.K.K.R.^.A.|.^.;.1.9.2.3.7.7.0.8.0.q.2.J F R Q ) { ! <.o. .X.*.X.$...[ X...#.' | u.%.X.| ^._.K.|.E.R.* . . ",
". . j B.B.K.R.^.^.^.|.K.+X^.|.M.^.K.7.9.9.8.8.9.8.8.0.L J G Q Q Q T 2.J ( ^.@.+.| $.| $.X.X.$.X.| @.$.&.+.X.X.+X_.S.&X+XA.- . . ",
". . b ^.K.R.+X^.^.+X^.^.^.^.R.^. X+X^.3.8.8.3.U G R L ) Q ! { D F F G A. X^.[ #.y.u.+.@.&.&.X.$...@.$.$.%.X.+.^.+XK._._.K.* . . ",
". . n ^.+X^.A.^.R.^.oX^.B.G.H.G.K.Q.^.) I I U Q ! { W L F G F F B._.K._.^.K._.U.^.#.| | ..u.X.$.[ | | &.y.k.f.,.] N.K.^.R.* . . ",
". . - b j c c c a a j c j a s j j c j j 4 4 4 5 4 4 7 9 i c c c j x x j b c h h a j n N j j y c c i 0 w p 0 0 u r j w q j o . . ",
". . . . . . . . . . . . . . . . . . . . . . . . . . . . . . . . . . . . . . . . . . . . . . . . . . . . . . . . . . . . . . . . ",
". . . . . . . . . . . . . . . . . . . . . . . . . . . . . . . . . . . . . . . . . . . . . . . . . . . . . . . . . . . . . . .   "
};
