/* XPM */
static char *_5bc3f9ae5ca45abfa9ab9939ddde819g798ieOCJgNzy7Bx[] = {
/* columns rows colors chars-per-pixel */
"64 64 94 2 ",
"   c #000000",
".  c #0B0500",
"X  c #0B0B00",
"o  c #150A00",
"O  c #1B0E00",
"+  c #131300",
"@  c #251200",
"#  c #2C1600",
"$  c #351A00",
"%  c #3A1D00",
"&  c #262600",
"*  c #2B2B00",
"=  c #342600",
"-  c #3F2000",
";  c #3E2B00",
":  c #333300",
">  c #3F3800",
",  c #452300",
"<  c #4A2500",
"1  c #542A00",
"2  c #5B2E00",
"3  c #4E3400",
"4  c #443B00",
"5  c #653300",
"6  c #6D3600",
"7  c #763B00",
"8  c #7B3D00",
"9  c #434100",
"0  c #4C4A00",
"q  c #535300",
"w  c #585800",
"e  c #626200",
"r  c #6D6D00",
"t  c #834200",
"y  c #8B4600",
"u  c #8F4800",
"i  c #924900",
"p  c #9A4D00",
"a  c #A55300",
"s  c #AA5500",
"d  c #B25900",
"f  c #BB5E00",
"g  c #976600",
"h  c #BF6000",
"j  c #C16000",
"k  c #CC6600",
"l  c #CE6C00",
"z  c #CF7000",
"x  c #D17600",
"c  c #D37A00",
"v  c #878700",
"b  c #9D9D00",
"n  c #AEA300",
"m  c #A9A900",
"M  c #BBBB00",
"N  c #D68400",
"B  c #D78900",
"V  c #D88B00",
"C  c #DB9400",
"Z  c #DE9D00",
"A  c #DFA000",
"S  c #CEBB00",
"D  c #E3AD00",
"F  c #E6B500",
"G  c #E7B800",
"H  c #E9BD00",
"J  c #D3D300",
"K  c #DEDE00",
"L  c #EBC300",
"P  c #EDCA00",
"I  c #EECE00",
"U  c #EFD100",
"Y  c #F0D300",
"T  c #F1D500",
"R  c #F2D900",
"E  c #F4DE00",
"W  c #E0E000",
"Q  c #E6E500",
"!  c #E8E800",
"~  c #EBEB00",
"^  c #EFEF00",
"/  c #F5E000",
"(  c #F6E400",
")  c #F7E700",
"_  c #F7E900",
"`  c #F8EA00",
"'  c #F9EE00",
"]  c #FAF000",
"[  c #FBF500",
"{  c #FCF500",
"}  c #FCF600",
"|  c #FCF700",
" . c #FDFB00",
".. c yellow",
/* pixels */
"                                                                                                                                ",
"                                                                                                                                ",
"                                                                                                                                ",
"                                                                                                                                ",
"                                                                                                                                ",
"                                                                                                                                ",
"                                                                                                                                ",
"              . O O O O O O O o                                                                                                 ",
"              a k k k k k k k j y t $ .                                                                                         ",
"              j k k k k k k k k k k k s 1 .                                                                                     ",
"              j k k k k k k k k k k k k k a .                                                                                   ",
"              j k k k k k k k k k k k k k k f o                                                                                 ",
"              j k k k k k k k k k k k k k k k 2                                                                                 ",
"              j k k k k k k k k k k k k k k k a .                                                                               ",
"              j k k k k k k k k k k k k k k k k O                                                                               ",
"              j k k k k k k k k k k k k k k k k %                                                                               ",
"              h k k k k k k k k k k k k k k k k 5                                                                               ",
"              i k k k k k k k k k k k k k k k k 5                                                                               ",
"              8 k k k k k k k k k k k k k k k k 5                                                                               ",
"              7 k k k k k k k k k k k k k k k k 5                                                                               ",
"              6 k k k k k k k k k k k k k k k k 6                                                                               ",
"              7 k k k k k k k k k k k k k k k k p                                                                               ",
"              5 k k k k k k k k k k k k k k k k j .                                                                             ",
"              u k k k k k k k k k k k k k k k k k <                                                                             ",
"            2 k k k k k k k k k k k k k k k k k k a .             . .   .                                                       ",
"          . s k k k k k k k k k k k k k k k k k k k t       # , t a s s a a 1 .                                                 ",
"          7 k k k k k k k k k k k k k k k k k k k k k p p p j k k k k k k k k y o                                               ",
"        o k k k k k k k k k k k k k k k k k k k k k k k k k k k k k k k k k k k s @                                             ",
"      . p k k k k k k k k k k k k l k k k k k k k k k k k k k k k k k k k k k k k d O                                           ",
"      , k k k k k k k k k k k k A Y I Z l k k k k k k k k k k k k k k k k k k k k k f @                                         ",
"      y k k k k k k k k k k k z ` ......P x k k k k k k k k k k k k k k k k k k k k k s .                                       ",
"      i k k k k k k k k k k k l / ........` N k k k k k k k k k k k k k k k k k k k k k 2                                       ",
"      i k k k k k k k k k k k k V  .........} A k k k k k k k k k k k k k k k k k k k k j @                                     ",
"      i k k k k k k k k k k k k k L .......... .F l k k k k k k k k k k k k k k k k k k k a .                                   ",
"      i k k k k k k k k k k k k k c } ............H l k k k k k k k k k k k k k k k k k k k t                                   ",
"      y k k k k k k k k k k k k l x ] ..............H k k k k k k k k k k k k k k k k k k k k 1                                 ",
"      < k k k k k k k k k k k k k F ..................C k k k k k k k k k k k k k k k k k k k j #                               ",
"      . a k k k k k k k k k k k B ] ..................E l k k k k k k k k k k k k k k k k k k k f O                             ",
"        < k k k k k k k k k k c / ......................D k k k k k k k k k k k k k k k k k k k k p .                           ",
"          i k k k k k k k k x E ........................' N l k k k k k k k k k k k k k k k k k k k 8                           ",
"          @ k k k k k k k k L ............................} T D N l l k k k k k k k k k k k k k k k k 2 .                       ",
"            i k k k k k k C  .....................................] I D V z l k k k k k k k k k k k k k 7 .                     ",
"            1 k k k k k k P ..............................................[ R H C c k k k k k k k k k k k a                     ",
"            $ k k k k k l _ ........................................................( F N k k k k k k k k k u o                 ",
"            . f k k k k z / ............................................................} I B k k k k k k k k a @               ",
"              j k k k k l U ................................................................] D k k k k k k k k f O             ",
"              j k k k k k D .................................................................. .H l k k k k k k k p .           ",
"            . j k k k k k c ] ....................................................................G l k k k k k k l t           ",
"            % k k k k k k k F ....................................................................} A k k k k k k k k ,         ",
"            t k k k k k k k c ......................................................................_ c k k k k k k k i         ",
"          @ f k k k k k k k l _ ......................................................................H k k k k k k k s .       ",
"          y k k k k k k k k l _ ......................................................................[ c k k k k k k k $       ",
"        $ k k k k k k k k k c ....................................................E ( ..................D k k k k k k k %       ",
"      O j k k k k k k k k k Z ..........................................................................R l k k k k k k ,       ",
"    . a k k k k k k k k k k L ..........................................................................[ c k k k k k k y       ",
"    2 k k k k k k k k k k l ' ............................................................................B k k k k k k y       ",
"    6 k k k k k k k k k k C  ...................[ / / } ..................................................C k k k k k k y       ",
"    6 k k k k k k k k k k G ................M 0 : = ; g n Q ..............................................V k k k k k k 5       ",
"    O t d k k k k l k k l R ............M w X             * v ~ ................................} } } ( L x k k k k k k f .     ",
"        O $ - 2 a a a a a S ......~ J w .                     * m ~ ........^ K J M r 0 9 9 9 4 > 4 4 3 t d k k k k k k j .     ",
"                          X 0 q q &                               * m W b e : +                           o t d d d d d 1       ",
"                                                                                                                                ",
"                                                                                                                                ",
"                                                                                                                                "
};
