/* XPM */
static char *d8babc02044a4189c702a539642c7411wNR9h8oWiBtzYegI[] = {
/* columns rows colors chars-per-pixel */
"64 64 112 2 ",
"   c black",
".  c #030200",
"X  c #050200",
"o  c #060300",
"O  c #0B0500",
"+  c #0D0600",
"@  c #0E0700",
"#  c #100800",
"$  c #150B00",
"%  c #160B00",
"&  c #190C00",
"*  c #1D0F00",
"=  c #211000",
"-  c #261300",
";  c #271400",
":  c #281400",
">  c #2C1600",
",  c #2F1800",
"<  c #331900",
"1  c #351A00",
"2  c #371C00",
"3  c #381C00",
"4  c #3C1F00",
"5  c #3F2000",
"6  c #422100",
"7  c #452200",
"8  c #462300",
"9  c #4B2500",
"0  c #4D2600",
"q  c #4F2800",
"w  c #4D2E00",
"e  c #522900",
"r  c #542A00",
"t  c #592D00",
"y  c #5E2F00",
"u  c #603000",
"i  c #653300",
"p  c #693500",
"a  c #6C3600",
"s  c #6D3700",
"d  c #713900",
"f  c #743A00",
"g  c #773B00",
"h  c #7A3D00",
"j  c #7D3E00",
"k  c #7F3F00",
"l  c #804000",
"z  c #834100",
"x  c #894400",
"c  c #8C4600",
"v  c #904800",
"b  c #924900",
"n  c #954A00",
"m  c #964B00",
"M  c #994C00",
"N  c #9E4F00",
"B  c #965300",
"V  c #A45200",
"C  c #A65300",
"Z  c #A85400",
"A  c #AF5700",
"S  c #AF5800",
"D  c #B35A00",
"F  c #B55A00",
"G  c #B85C00",
"H  c #BB5E00",
"J  c #BC5E00",
"K  c #BF6000",
"L  c #BE6700",
"P  c #C26100",
"I  c #C46200",
"U  c #C76400",
"Y  c #CB6500",
"T  c #CC6600",
"R  c #CC6800",
"E  c #CE6C00",
"W  c #CF7100",
"Q  c #D07200",
"!  c #D17500",
"~  c #D37B00",
"^  c #D48000",
"/  c #D58000",
"(  c #D68500",
")  c #D78800",
"_  c #D88A00",
"`  c #D88C00",
"'  c #DA9000",
"]  c #DB9400",
"[  c #DC9600",
"{  c #DD9B00",
"}  c #DE9E00",
"|  c #DFA200",
" . c #E6B200",
".. c #E7B800",
"X. c #E8BB00",
"o. c #E9BD00",
"O. c #ECC600",
"+. c #EDC900",
"@. c #EECD00",
"#. c #EFD100",
"$. c #F1D600",
"%. c #F2D900",
"&. c #F3DD00",
"*. c #F5E100",
"=. c #F6E400",
"-. c #F7E800",
";. c #F8EB00",
":. c #F9EE00",
">. c #FAF000",
",. c #FCF700",
"<. c #FDFA00",
"1. c #FFFE00",
/* pixels */
"                                                                              r X > +                                           ",
"                                                                          4 Z Y P I v =                                         ",
"                                                                      # h I T T T T T u                                         ",
"                                                                    X n Y T T T T T T v X                                       ",
"                                                                    s T T T T T T T T P &                                       ",
"                                                                  7 Y T T T T T T T T T =                                       ",
"                                                                : J T T T T T T T T T T 1                                       ",
"                                                                S T T T T T T T T T T Y d                                       ",
"                                                              5 T T T T T T T T T T T T d                                       ",
"                                                            X Z T T T T T T T T T T T T d                                       ",
"                                                            1 T T T T T T T T T T T T T d                                       ",
"                                                            u T T T T T T T T T T T T T 0                                       ",
"                                                            v T T T T T T T T T T T T M #                                       ",
"                                                            v T T T T T T T T T T T m #                                         ",
"                                                            n T T T T T T T T T P f &                                           ",
"                                                          O P T T T T T T T T I e X                                             ",
"                                                          - T T T T T T T T Y n O                                               ",
"                                                          j T T T T T T T T T U q X                                             ",
"                                                        - U T T T T T T T T T T K :                                             ",
"                                                        h T T T T T T T T T T T R S 7                                           ",
"                                                      e T T T T T T T T T T T T T T K u                                         ",
"                                                    ; Y T T T T T T T T T T T T T T T T h #                                     ",
"                                                  & D T T T T T T T T T T T T T T T T T Y Z =                                   ",
"                                                > P Y T T T T T T T T T T T T T T T T T Y Y K t +                               ",
"                                              3 D T T T T T T T T T T T T T T T T T T T T T T Y M $                             ",
"                                            0 P T T T T T T T T T T T T T T T T T T T T T T T T T C =                           ",
"                                        + y T T T T T T T T T T T T T T T T T T T T T T T T T T T T m 1                         ",
"                                      : C T T T T T T T T T T T T T T T T T T T T T T T T T T T T T T F *                       ",
"                                  X 7 I T T T T T T T T T T T T T T T T T T T T T T T T T T T T T T T T n +                     ",
"                                & x T T T T T T T T T T T T T T T T T T T T T T T T T T T T T T T T T T T d                     ",
"                              = H T T T T T T T T T T T T T T T T T T T T T T T T T T T T T T T T T T T T D +                   ",
"                            > T T T T T T T T T T T T T T T T T T T T T T T T T T T T T T T T T T T T T T T $                   ",
"                          & K T T T T T T T T T T T T T T T T T T T T T T T T T T T T T T T T T T T T T T D O                   ",
"                        O C Y T T T T T T T T T T T T T T T T T T T T T T T T T T T T T T T T T T T T T T v                     ",
"                        i Y T T T T T T T T T T T T T T T T T T T T T T T T T T T T T T T T T T T T T T R 9                     ",
"                      & H Y T T T T T T T T T T T T T T T T T T T T T T T T T T T T T T T T T T T T T T Z #                     ",
"                    O n T T T T T T T T T T T T T T T T T T T T T T T T T T T T T T T T T T T T T T T T C O                     ",
"                    h R T T T T T T T T T T T T T T T T T T T T T T T T T T T T T T T T T T T T T T T T P 7                     ",
"                  # T T T T T T T T T T T T T T T T T T T T T T T T T T T T T T T T T T T T T T T T T T Y H &                   ",
"                o M T T T T T T T T T T T T T T T T T T T T T T T T T T T T T T T T T T T T T T T T T T T T C +                 ",
"                2 T T T T T T T T T T T T T T T T T T T T T T T R R R T T T T T T T T T T T T T T T T T T T T j X               ",
"              + S T T T T T T T T T T T T T T T T T T T R ! { ..@.@.+.| Q T T T T T T T T T T T T T T T T T T T t               ",
"              6 T T T T T T T T T T T T T T T T T T Y ' +.<.1.1.1.1.1.1.:.{ R Y T T T T T T T T T T T T T T T T P #             ",
"              P T T T T T T T T T T T T T T T T T ` $.1.1.1.1.1.1.1.1.1.1.1.#.W T T T T T T T T T T T T T T T T T j X           ",
"            0 T T T T T T T T T T T T T T T T ! +.<.1.1.1.1.1.1.1.1.1.1.1.1.1.-.( T T T T T T T T T T T T T T T T Y y           ",
"            v T T T T T T T T T T T T T T T ( =.1.1.1.1.1.1.1.1.1.1.1.1.1.1.1.1.:.` T T T T T T T T T T T T T T T T I <         ",
"          ; I T T T T T T T T T T T T T Y / :.1.1.1.1.1.1.1.1.1.1.1.1.1.1.1.1.1.1.:.` T T T T T T T T T T T T T T T T C +       ",
"          f T T T T T T T T T T T T T Y E $.1.1.1.1.1.1.1.1.1.1.1.1.1.1.1.1.1.1.1.1.>._ T T T T T T T T T T T T T T T I e       ",
"          J T T T T T T T T T T T T T T ` <.1.1.1.1.1.1.1.1.1.1.1.1.1.1.1.1.1.1.1.1.1.*.~ T T T T T T T T T T T T T T T C O     ",
"        6 T T T T T T T T T T T T T T R o.1.1.1.1.1.1.1.1.1.1.1.1.1.1.1.1.1.1.1.1.1.1.1.%.Q T T T T T T T T T T T T T T T u     ",
"        p T T T T T T T T T T T T T T E =.1.1.1.1.1.1.1.1.1.1.1.1.1.1.1.1.1.1.1.1.1.1.1.1.o.R R T T T T T T T T T T T T Y C O   ",
"        F T T T T T T T T T T T T T T ~ 1.1.1.1.1.1.1.1.1.1.1.1.1.1.1.1.1.1.1.1.1.1.1.1.1.1.{ Y T T T T T T T T T T T T R Y 2   ",
"      = P T T T T T T T T T T T Y T T | 1.1.1.1.1.1.1.1.1.1.1.1.1.1.1.1.1.1.1.1.1.1.1.1.1.1.>.~ T T T T T T T T T T T T T T z X ",
"      1 T T T T T T T T T T { $.$.' ~ -.1.1.1.1.1.1.1.1.1.1.1.1.1.1.1.1.1.1.1.1.1.1.1.1.1.1.1.#.R T T T T T T T T T T T T T J = ",
"      6 T T T T T T T T T { <.1.1.<.<.1.1.1.1.1.1.1.1.1.1.1.1.1.1.1.1.1.1.1.1.1.1.1.1.1.1.1.1.1.] T T T T T T T T T T T T T Y M ",
"      u T T T T T T T R R *.1.1.1.1.1.1.1.1.1.1.1.1.1.1.1.1.1.1.1.1.1.1.1.1.1.1.1.1.1.1.1.1.1.1.&.R T T T T T T T T T T T T T T ",
"      c T T T T T T T T Q ;.1.1.1.1.1.1.1.1.1.1.1.1.1.1.1.1.1.1.1.1.1.1.1.1.1.1.<.>.=.*.*.:.1.1.1.~ T T T T T T T T T T T T T T ",
"      c T T T T T T T T T _ O.&.&.%.$. .) ] { ] ] { ] ] ] { ] ] { ] ] ] ] ] ( ( / ~ ! ! ! ) :.1.1.~ T T T T T T T T T T T T T T ",
"  O X p T T T T T T T T T T C w B L E T R Y R T R T T T R T R T T T T T T T T T T T T T T T ' <.:.R T T T T T T T T T T T T T H ",
"u C N J T T R Y T T T T J s #   O < v H Y R T T T T T T T T Y Y T T T T T T T T T T T T T T T ` ( R T T T T T T T T T T T Y P 5 ",
"P Y T T Y Y T Y Y Y P d > X         O , s H H H H H H G H H G J T T T T T T T T T T T T T T T T T T T T T T T T T T T T T T M O ",
"7 H T T Y Y T Y H s < X                 X # @ # # # @ + # # @ @ i i u i u i u i f H H F H F H T T T T T T T T T T T T T T Y 8   ",
"  , g x d z z i # X                                                             X & # $ # $ & d d d d s d v d D P T T T Y s o   ",
"      O   X X                                                                                             O   : # C T Y p       "
};
