/* XPM */
static char *_9687b40b3ee4742be7f7800b977bd70KuYS5df0hCJN6ENu[] = {
/* columns rows colors chars-per-pixel */
"64 64 124 2 ",
"   c None",
".  c black",
"X  c #010000",
"o  c #010100",
"O  c #020100",
"+  c #030100",
"@  c #030200",
"#  c #040200",
"$  c #050200",
"%  c #050300",
"&  c #060300",
"*  c #070400",
"=  c #080400",
"-  c #090500",
";  c #0B0500",
":  c #0C0600",
">  c #0E0700",
",  c #100800",
"<  c #110800",
"1  c #130900",
"2  c #1C0E00",
"3  c #1E0F00",
"4  c #CB6500",
"5  c #CC6500",
"6  c #CC6600",
"7  c #CC6700",
"8  c #CC6800",
"9  c #CD6800",
"0  c #CD6900",
"q  c #CD6A00",
"w  c #CE6B00",
"e  c #CE6C00",
"r  c #CE6D00",
"t  c #CF6E00",
"y  c #CF6F00",
"u  c #CF7000",
"i  c #D07300",
"p  c #D07400",
"a  c #D17400",
"s  c #D17500",
"d  c #D17600",
"f  c #D27700",
"g  c #D27800",
"h  c #D27900",
"j  c #D37A00",
"k  c #D47D00",
"l  c #D47E00",
"z  c #D47F00",
"x  c #D58300",
"c  c #D68200",
"v  c #D68300",
"b  c #D68400",
"n  c #D68600",
"m  c #D78600",
"M  c #D78700",
"N  c #D98C00",
"B  c #D98E00",
"V  c #DA8F00",
"C  c #DA9100",
"Z  c #DA9200",
"A  c #DB9300",
"S  c #DD9B00",
"D  c #DE9C00",
"F  c #DE9D00",
"G  c #DE9F00",
"H  c #DF9F00",
"J  c #E0A100",
"K  c #E0A300",
"L  c #E0A400",
"P  c #E1A500",
"I  c #E1A600",
"U  c #E2AA00",
"Y  c #E3AD00",
"T  c #E4B000",
"R  c #E5B200",
"E  c #E5B300",
"W  c #E6B400",
"Q  c #E6B500",
"!  c #E7B700",
"~  c #E7BA00",
"^  c #E8B900",
"/  c #E9BC00",
"(  c #E8BD00",
")  c #EABE00",
"_  c #EAC200",
"`  c #EBC300",
"'  c #EBC400",
"]  c #ECC700",
"[  c #EDC900",
"{  c #EECC00",
"}  c #EFCE00",
"|  c #F0D200",
" . c #F0D300",
".. c #F1D500",
"X. c #F2D800",
"o. c #F3DB00",
"O. c #F3DC00",
"+. c #F4DF00",
"@. c #F4E000",
"#. c #F5E200",
"$. c #F6E500",
"%. c #F7E600",
"&. c #F7E800",
"*. c #F7E900",
"=. c #F8EA00",
"-. c #F8EC00",
";. c #F9EC00",
":. c #F9ED00",
">. c #F9EF00",
",. c #FAF000",
"<. c #FAF100",
"1. c #FBF300",
"2. c #FBF400",
"3. c #FCF500",
"4. c #FCF600",
"5. c #FCF700",
"6. c #FCF800",
"7. c #FDF800",
"8. c #FDF900",
"9. c #FDFA00",
"0. c #FEFC00",
"q. c #FEFD00",
"w. c #FFFE00",
"e. c yellow",
/* pixels */
". . . . . . . . . . . . . . . . . . . . . . . . . . . . . . . . . . . . . . . . . . . . . . . . . . . . . . . . . . . . . . . . ",
". . . . . . . . . . . . . . . . . . . . . . . . . . . . . . . . . . . . . . . . . . . . . . . . . . . . . . . . . . . . . . . . ",
". . . . . . . . . . . . . . . . . . . . . . . . . . . . . . . . . . . . . . . . . . . . . . . . . . . . . . . . . . . . . . . . ",
". . . . . . . . . . . . . . . . . . . . . . . . . . . . . . . . . . . . . . . . . . . . . . . . . . . . . . . . . . . . . . . . ",
". . . . . . . . . . . . . . . . . . . . . . . . . . . . . . . . . . . . . . . . . . . . . . . . . . . . . . . . . . . . . . . . ",
". . . . . . . . . . . . . . . . . . . . . . . . . . . . . . . . . . . . . . . . . . . . . . . . . . . . . . . . . . . . . . . . ",
". . . . . . . . . . . . . . . . . . . . . . . . . . . . . . . . . . . . . . . . . . . . . . . . . . . . . . . . . . . . . . . . ",
". . . . . . . . . . . . . . . . . . . . . . . . . . . . . . . . . . . . . . . . . . . . . . . . . . . . . . . . . . . . . . . . ",
". . . . . . . . . . . . . . . . . . . . . . . . . . . . . . . . . . . . . . . . . . . . . . . . . . . . . . . . . . . . . . . . ",
". . . . . . . . . . . . . . . . . . . . . 6 6 6 6 6 6 6 6 6 . . . . . . . . . . . . . . . . . . . . . . . . . . . . . . . . . . ",
". . . . . . . . . . . . . . . . . . . . 6 6 6 6 6 6 6 6 6 6 6 6 6 . . . . . . . . . . . . . . . . . . . . . . . . . . . . . . . ",
". . . . . . . . . . . . . . . . . . . & 6 6 6 6 6 6 6 6 6 6 6 6 6 6 6 . . . . . . . . . . . . . . . . . . . . . . . . . . . . . ",
". . . . . . . . . . . . . . . . . . . 6 6 6 6 6 6 6 6 6 6 6 6 6 6 6 6 6 & . . . . . . . . . . . . . . . . . . . . . . . . . . . ",
". . . . . . . . . . . . . . . . . . 6 6 6 6 6 6 6 6 6 6 6 6 6 6 6 6 6 6 6 6 . . . . . . . . . . . . . . . . . . . . . . . . . . ",
". . . . . . . . . . . . . . . . . 6 6 6 6 6 6 6 6 6 6 6 6 6 6 6 6 6 6 6 6 6 6 . . . . . . . . . . . . . . . . . . . . . . . . . ",
". . . . . . . . . . . . . . . . 6 6 6 6 6 6 6 6 6 6 6 6 6 6 6 6 6 6 6 6 6 6 6 6 . . . . . . . . . . . . . . . . . . . . . . . . ",
". . . . . . . . . . . . . .   6 6 6 6 6 6 6 6 6 6 6 6 6 6 6 6 6 6 6 6 6 6 6 6 6 6   . . . . . . . . . . . . . . . . . . . . . . ",
". . . . . . . . . . . . .   6 6 6 6 6 6 6 6 6 6 6 6 6 6 6 6 6 6 6 6 6 6 6 6 6 6 6 6   . . . . . . . . . . . . . . . . . . . . . ",
". . . . . . . . . . . . 6 6 6 6 6 6 6 6 6 6 6 6 6 6 6 6 6 6 6 6 6 6 6 6 6 6 6 6 6 6 6   . . . . . . . . . . . . . . . . . . . . ",
". . . . . . . . . . . 6 6 6 6 6 6 6 6 6 6 6 6 6 6 6 6 6 6 6 6 6 6 6 6 6 6 6 6 6 6 6 6 6 . . . . . . . . . . . . . . . . . . . . ",
". . . . . . . . . . 6 6 6 6 6 6 6 6 6 6 6 6 6 6 6 6 6 6 6 6 6 6 6 6 6 6 6 6 6 6 6 6 6 6 . . . . . . . . . . . . . . . . . . . . ",
". . . . . . . . . 6 6 6 6 6 6 6 6 6 6 6 6 6 6 6 6 6 6 6 6 6 6 6 6 6 6 6 6 6 6 6 6 6 6 6 & . . . . . . . . . . . . . . . . . . . ",
". . . . . . .   6 6 6 6 6 6 6 6 6 6 6 6 6 6 6 6 6 6 6 6 6 6 6 6 6 6 6 6 6 6 6 6 6 6 6 6 & . . . . . . . . . . . . . . . . . . . ",
". . . . . . . 6 6 6 6 6 6 6 6 6 6 6 6 6 6 6 6 6 6 6 6 6 6 6 6 6 6 6 6 6 6 6 6 6 6 6 6 6 . . . . . . . . . . . . . . . . . . . . ",
". . . . . . 6 6 6 6 6 6 6 6 6 6 6 6 6 6 6 6 6 6 6 6 6 6 6 6 6 6 6 6 6 6 6 6 6 6 6 6 6 6 . . . . . . . . . . . . . . . . . . . . ",
". . . . . . 6 6 6 6 6 6 6 6 6 6 6 6 6 6 6 6 6 6 6 6 6 6 6 6 6 6 6 6 6 6 6 6 6 6 6 6 6   . . . . . . . . . . . . . . . . . . . . ",
". . . . . . 6 6 6 6 6 6 6 6 6 6 6 6 6 6 6 6 6 6 6 6 6 6 6 6 6 6 6 6 6 6 6 6 6 6 6 6   . . . . . . . . . . . . . . . . . . . . . ",
". . . . . . 6 6 6 6 6 6 6 6 6 6 6 6 6 6 6 6 6 6 6 6 6 6 6 6 6 6 6 6 6 6 6 6 6 6 6 6 6 6 . . . . . . . . . . . . . . . . . . . . ",
". . . . . . 6 6 6 6 6 6 6 6 6 6 6 6 6 6 6 6 6 6 6 6 6 6 6 6 6 6 6 6 6 6 6 6 6 6 6 6 6 6 6 6 . . . . . . . . . . . . . . . . . . ",
". . . . . . 6 6 6 6 6 6 6 6 6 6 6 6 6 6 6 6 6 6 6 6 6 6 6 6 6 6 6 6 6 6 6 6 6 6 6 6 6 6 6 6 6 6 . . . . . . . . . . . . . . . . ",
". . . . . . 6 6 6 6 6 6 6 6 6 6 6 6 6 6 6 6 6 6 6 6 6 6 6 6 6 6 6 6 6 6 6 6 6 6 6 6 6 6 6 6 6 6 6   . . . . . . . . . . . . . . ",
". . . . . . , 6 6 6 6 6 6 6 6 6 6 6 6 6 6 6 6 6 6 6 6 6 6 6 6 6 6 6 6 6 6 6 6 6 6 6 6 6 6 6 6 6 6 6 6 . . . . . . . . . . . . . ",
". . . . . . & 6 6 6 6 6 6 6 6 6 6 6 6 6 6 6 6 6 6 6 6 6 6 6 6 6 6 6 6 6 6 6 6 6 6 6 6 6 6 6 6 6 6 6 6 6 . . . . . . . . . . . . ",
". . . . . . . 6 6 6 6 6 6 6 6 6 6 6 6 6 6 6 6 6 6 6 6 6 6 6 6 6 6 6 6 6 6 6 6 6 6 6 6 6 6 6 6 6 6 6 6 6 6 . . . . . . . . . . . ",
". . . . . . . 6 6 6 6 6 6 6 6 6 6 6 6 6 6 6 6 6 6 6 6 6 6 6 6 6 6 6 6 6 6 6 6 6 6 6 6 6 6 6 6 6 6 6 6 6 6 6 . . . . . . . . . . ",
". . . . . . . q 6 6 6 6 6 6 6 6 6 6 6 6 6 6 6 6 6 6 6 6 6 6 6 6 6 6 6 6 6 6 6 6 6 6 6 6 6 6 6 6 6 6 6 6 6 6 6 . . . . . . . . . ",
". . . . . . . . 6 6 6 6 6 6 6 6 6 6 6 6 6 6 6 6 6 6 6 6 6 6 6 6 6 6 6 6 6 6 6 6 6 6 6 6 6 6 6 6 6 6 6 6 6 6 6 . . . . . . . . . ",
". . . . . . . . 6 6 6 6 6 6 6 6 6 6 6 6 6 6 6 6 6 6 6 6 6 6 6 6 6 6 6 6 6 6 6 6 6 6 6 6 6 6 6 6 6 6 6 6 6 6 6 6 . . . . . . . . ",
". . . . . . . . 6 6 6 6 6 6 6 6 6 6 6 6 6 6 6 6 6 6 6 6 r A d 4 6 6 6 6 6 6 6 6 6 6 6 6 6 6 6 6 6 6 6 6 6 6 6 6 . . . . . . . . ",
". . . . . . . . . 6 6 6 6 6 6 6 6 6 6 6 6 6 6 6 6 6 6 6 F e.=.S q 6 6 6 6 6 6 6 6 6 6 6 6 6 6 6 6 6 6 6 6 6 6 6 : . . . . . . . ",
". . . . . . . . . 6 6 6 6 6 6 6 6 6 6 6 6 6 6 6 6 6 6 6 ~ e.e.0.] d 6 6 6 6 6 6 6 6 6 6 6 6 6 6 6 6 6 6 6 6 6 6 6 . . . . . . . ",
". . . . . . . . . 6 6 6 6 6 6 6 6 6 6 6 6 6 6 6 6 6 6 q ..e.e.e.e.,.F q 6 6 6 6 6 6 6 6 6 6 6 6 6 6 6 6 6 6 6 6 6 . . . . . . . ",
". . . . . . . . . 6 6 6 6 6 6 6 6 6 6 6 6 6 6 6 6 6 4 d =.e.e.e.e.e.e.} u 6 6 6 6 6 6 6 6 6 6 6 6 6 6 6 6 6 6 6 6 & . . . . . . ",
". . . . . . . . . 6 6 6 6 6 6 6 6 6 6 6 6 6 6 6 6 6 6 N e.e.e.e.e.e.e.e.0.J q 6 6 6 6 6 6 6 6 6 6 6 6 6 6 6 6 6 6 6 . . . . . . ",
". . . . . . . . * 4 6 6 6 6 6 6 6 6 6 4 6 6 6 6 i C R =.e.e.e.e.e.e.e.e.e.0...v 6 6 6 6 6 6 6 6 6 6 6 6 6 6 6 6 6 6 . . . . . . ",
". . . . . . . . 6 6 6 6 6 6 6 6 6 6 u J / [ X.%.>.0.e.e.e.e.e.e.e.e.e.e.e.e.e.,.R d 6 6 6 6 6 6 6 6 6 6 6 6 6 6 6 6 - . . . . . ",
". . . . . . . . 6 6 6 6 6 6 6 6 6 q ` e.e.e.e.e.e.e.e.e.e.e.e.e.e.e.e.e.e.e.e.e.e.%.P g 6 6 6 6 6 6 6 6 6 6 6 6 6 6 6 . . . . . ",
". . . . . . . & 6 6 6 6 6 6 6 6 6 r %.e.e.e.e.e.e.e.e.e.e.e.e.e.e.e.e.e.e.e.e.e.e.e.e.=.X.[ Y g 6 6 6 6 6 6 6 6 6 6 4 & . . . . ",
". . . . . . . 6 6 6 6 6 6 6 6 6 6 r %.e.e.e.e.e.e.e.e.e.e.e.e.e.e.e.e.e.e.e.e.e.e.e.e.e.e.e.e.>.F 6 4 6 6 6 6 6 6 6 6 6 . . . . ",
". . . . . . . 6 6 6 6 6 6 6 6 6 6 q ..e.e.e.e.e.e.e.e.e.e.e.e.e.e.e.e.e.e.e.e.e.e.e.e.e.e.e.e.e.0.F 6 6 6 6 6 6 6 6 6 6 6 . . . ",
". . . . . . 6 6 6 6 6 6 6 6 6 6 6 6 P e.e.e.e.e.e.e.e.e.e.e.e.e.e.e.e.e.e.e.e.e.e.e.e.e.e.e.e.e.e.>.l 6 6 6 6 6 6 6 6 6 6 . . . ",
". . . . . . 6 6 6 6 6 6 6 6 6 6 6 q J 0.e.e.e.e.e.e.e.e.e.e.e.e.e.e.e.e.e.e.e.e.e.e.e.e.e.e.e.e.e.e.^ 6 6 6 6 6 6 6 6 6 6 & . . ",
". . . . . 6 6 6 6 6 6 6 6 6 6 6 y ] e.e.e.e.e.e.e.e.e.e.e.e.e.e.e.e.e.e.e.e.e.e.e.e.e.e.e.e.e.e.e.e.,.g q 6 6 6 6 6 6 6 6 6 . . ",
". . . . . 6 6 6 6 6 6 6 6 6 q P >.e.e.e.e.e.e.e.e.e.e.e.e.e.e.e.e.e.e.e.e.e.e.e.e.e.e.e.e.e.e.e.e.e.e.R 6 6 6 6 6 6 6 6 6 6 . . ",
". . . . 6 6 6 6 6 6 6 6 4 l | e.e.e.e.e.e.e.e.e.e.e.e.e.e.e.e.e.e.e.e.e.e.e.e.e.e.e.e.e.e.e.e.e.e.e.e.+.6 6 6 6 6 6 6 6 6 6 6 . ",
". . . 6 6 6 6 6 6 6 6 6 C =.e.e.e.e.e.e.e.e.e.e.e.e.e.e.e.e.e.e.e.e.e.e.e.>.N u u u u r u u r v 5.e.e.5.r 6 6 6 6 6 6 6 6 6 6   ",
". . . 6 6 6 6 6 6 6 6 n ,.e.e.e.e.e.e.e.e.e.e.e.e.e.e.e.e.e.e.e.e.e.e.e.| l 6 6 6 6 6 6 6 6 6 q X.e.e.0.d 6 6 6 6 6 6 6 6 6 6   ",
". . 6 6 6 6 6 6 6 6 6 W e.e.e.e.e.e.e.e.e.e.e.e.e.e.e.e.e.e.e.e.e.e.>.P r 6 6 6 6 6 6 6 6 6 6 6 F 0.e.1.q 6 6 6 6 6 6 6 6 6 6   ",
". . 6 6 6 6 6 6 6 6 6 R e.e.e.e.e.X.C P ` #.5.e.e.e.e.e.e.e.e.0.+.W l 6 6 6 6 6 6 6 6 6 6 6 6 4 q / #.! 6 6 6 6 6 6 6 6 6 6 6   ",
". . 6 6 6 6 6 6 6 6 6 n 5.e.e.2.` d 6 6 4 r v S R [ } } [ / J M r 6 6 6 6 6 6 6 - . . . . . . & : q y q 6 6 6 6 6 6 6 6 6 6 4 . ",
". . . 6 6 6 6 6 6 6 6 6 S R U n q 6 3 3 3 3 2 1 , 1 : : - * * . . & . & . . . . . . . . . . . . . . . 6 6 6 6 6 6 6 6 6 6 6 . . ",
". . . 6 6 6 6 6 : . . . . . . . . . . . . . . . . . . . . . . . . . . . . . . . . . . . . . . . . . . . . 1 6 6 6 6 6 - . . . . ",
". . . . & & . . . . . . . . . . . . . . . . . . . . . . . . . . . . . . . . . . . . . . . . . . . . . . . . . . . . . . . . . . ",
". . . . . . . . . . . . . . . . . . . . . . . . . . . . . . . . . . . . . . . . . . . . . . . . . . . . . . . . . . . . . . . . "
};
