/* XPM */
static char *e495649f04df4411971c4290a39fdd63KmpNUAY3CEVp7LPP[] = {
/* columns rows colors chars-per-pixel */
"24 24 11 1 ",
"  c black",
". c #6F6F59",
"X c #7F7F66",
"o c #CFCFA5",
"O c #DFDFB2",
"+ c #EFEFBF",
"@ c #FFFFCC",
"# c #FFFFD2",
"$ c #FFFFD8",
"% c #FFFFE5",
"& c white",
/* pixels */
"          +@@O          ",
"          @&&@          ",
"          @&&@          ",
"          @&&@          ",
"          @&&@          ",
"          @&&@          ",
"          @&&@          ",
"          @&&@          ",
"          @&&@          ",
"          @&&@          ",
"o@@@@@@@@@$&&@@@@@@@@@@@",
"@&&&&&&&&&&&&&&&&&&&&&&@",
"@&&&&&&&&&&&&&&&&&&&&&&@",
"O@@@@@@@@@$&&#@@@@@@@@@+",
"          @&&@          ",
"          @&&@          ",
"          @&&@          ",
"          @&&@          ",
"          @&&@          ",
"          @&&@          ",
"          @&&@          ",
"          @&&@          ",
"          @%%@          ",
"          .XX.          "
};
